<?xml version="1.0" encoding="UTF-8" ?>
<!DOCTYPE svg PUBLIC "-//W3C//DTD SVG 1.1//EN" "http://www.w3.org/Graphics/SVG/1.1/DTD/svg11.dtd">
<svg width="588pt" height="588pt" viewBox="0 0 588 588" version="1.1" xmlns="http://www.w3.org/2000/svg">
<g id="#8aae5bf9">
<path fill="#8aae5b" opacity="0.98" d=" M 282.07 121.95 C 285.47 122.07 288.87 121.94 292.28 122.05 C 288.87 122.40 285.46 122.83 282.06 123.21 C 282.06 124.75 282.05 126.29 282.02 127.83 C 290.82 128.37 299.71 127.28 308.44 128.86 C 299.64 129.24 290.82 128.82 282.02 129.08 C 280.62 126.89 280.62 124.13 282.07 121.95 Z" />
</g>
<g id="#4c8e02ff">
<path fill="#4c8e02" opacity="1.00" d=" M 292.28 122.05 C 294.42 121.92 296.57 121.92 298.71 122.12 C 304.25 122.85 309.84 123.14 315.44 122.98 C 315.86 123.09 316.71 123.31 317.13 123.42 C 318.31 124.08 319.67 124.25 320.98 123.96 C 321.75 124.06 323.28 124.27 324.04 124.38 C 324.93 125.06 325.91 125.27 327.00 125.02 C 327.52 125.07 328.54 125.17 329.05 125.22 C 329.58 125.38 330.64 125.70 331.16 125.86 C 331.64 125.98 332.58 126.23 333.06 126.35 C 333.94 127.03 334.94 127.27 336.06 127.05 L 337.00 127.23 C 337.53 127.38 338.60 127.69 339.13 127.84 C 339.60 127.96 340.55 128.21 341.02 128.33 C 341.90 129.04 342.90 129.28 344.02 129.07 L 344.99 129.19 C 345.51 129.39 346.56 129.77 347.08 129.97 L 348.02 130.19 C 348.52 130.39 349.54 130.79 350.04 130.99 L 350.66 131.38 C 351.83 132.35 353.25 132.98 354.78 133.11 L 355.42 133.24 C 358.72 134.83 362.15 136.18 365.70 137.13 L 366.57 137.43 C 366.73 137.50 367.05 137.64 367.22 137.70 L 368.17 138.15 C 368.39 138.25 368.82 138.46 369.03 138.56 L 370.12 139.11 C 370.35 139.22 370.80 139.45 371.02 139.56 L 372.13 140.11 C 372.35 140.22 372.80 140.44 373.03 140.55 L 374.13 141.11 C 374.36 141.22 374.80 141.44 375.02 141.55 L 376.11 142.10 C 376.32 142.21 376.74 142.43 376.95 142.54 L 377.88 143.02 C 378.04 143.10 378.35 143.27 378.51 143.35 C 380.23 144.29 381.91 145.31 383.61 146.30 C 383.75 146.38 384.02 146.54 384.16 146.61 L 384.92 147.05 C 385.09 147.14 385.42 147.33 385.58 147.43 C 386.29 147.87 387.70 148.76 388.40 149.20 C 388.51 149.28 388.73 149.43 388.84 149.51 C 389.28 149.97 390.15 150.88 390.59 151.34 C 391.06 152.38 391.85 152.94 392.99 153.01 C 393.61 153.28 394.85 153.82 395.47 154.09 C 395.56 154.16 395.75 154.30 395.84 154.37 C 397.05 155.31 398.28 156.25 399.50 157.19 C 399.60 157.27 399.79 157.43 399.88 157.52 C 400.30 157.98 401.12 158.92 401.54 159.39 C 402.24 160.70 403.37 161.74 404.85 162.08 C 406.41 162.56 407.50 163.86 408.57 165.02 C 410.39 167.43 412.61 169.51 415.23 171.02 C 415.95 171.47 416.53 172.05 416.99 172.77 C 418.51 175.38 420.57 177.61 422.96 179.45 C 424.91 181.24 426.82 183.09 428.50 185.15 C 428.57 185.24 428.71 185.44 428.79 185.54 C 429.51 186.71 430.50 187.77 430.92 189.12 C 431.10 190.20 431.72 190.95 432.75 191.35 C 433.19 191.80 434.07 192.70 434.51 193.15 C 434.59 193.27 434.75 193.49 434.83 193.61 C 435.25 194.23 436.08 195.48 436.50 196.11 C 436.59 196.24 436.76 196.49 436.84 196.61 C 437.26 197.23 438.10 198.48 438.52 199.10 C 438.59 199.21 438.74 199.43 438.81 199.54 C 440.37 201.95 442.22 204.29 442.98 207.11 C 443.31 208.94 444.40 210.47 445.82 211.64 L 446.46 212.30 C 446.58 212.48 446.81 212.84 446.93 213.02 L 447.46 214.00 C 447.57 214.22 447.80 214.65 447.91 214.87 L 448.45 215.97 C 448.56 216.20 448.78 216.65 448.89 216.88 L 449.44 217.98 C 449.55 218.21 449.78 218.66 449.89 218.88 L 450.45 219.97 C 450.56 220.19 450.77 220.63 450.88 220.84 L 451.38 221.89 C 451.46 222.09 451.64 222.50 451.73 222.71 L 452.03 223.81 C 452.26 224.35 452.71 225.44 452.94 225.99 L 453.55 226.97 C 453.63 227.16 453.78 227.55 453.85 227.74 L 454.06 228.83 C 454.26 229.39 454.65 230.51 454.85 231.06 L 455.46 232.02 C 455.55 232.20 455.73 232.57 455.82 232.75 L 456.06 233.76 C 456.22 234.31 456.52 235.41 456.67 235.96 L 456.86 236.94 C 457.01 238.79 457.65 240.56 458.66 242.13 L 459.02 242.83 C 459.21 243.37 459.59 244.43 459.77 244.97 L 459.88 246.04 C 459.70 247.15 459.97 248.16 460.69 249.04 L 461.06 249.90 C 461.24 250.43 461.59 251.50 461.76 252.03 L 461.83 253.07 C 461.71 254.44 461.97 255.80 462.64 257.01 L 462.95 257.83 C 462.76 258.94 462.98 259.97 463.63 260.90 C 463.73 261.41 463.91 262.44 464.01 262.96 C 463.77 264.31 463.98 265.70 464.63 266.92 C 464.73 267.41 464.91 268.39 465.01 268.88 C 464.81 270.93 464.88 273.03 465.63 274.99 C 465.95 276.12 466.25 277.29 466.34 278.48 C 465.73 283.31 466.19 288.17 466.82 292.96 C 466.67 301.97 466.06 310.97 464.95 319.91 C 460.55 349.06 448.51 377.04 430.19 400.15 C 426.72 404.32 423.74 409.10 419.26 412.26 C 417.42 413.80 414.82 412.16 414.65 409.96 C 415.93 406.19 419.17 403.61 421.63 400.62 C 445.30 372.68 459.28 336.59 460.24 299.96 C 460.45 294.85 461.08 289.71 460.24 284.62 C 460.19 283.96 460.09 282.65 460.03 281.99 C 460.04 278.80 459.67 275.64 459.18 272.51 C 459.17 272.08 459.13 271.23 459.11 270.81 C 459.26 269.48 459.01 268.16 458.41 266.99 C 458.32 266.47 458.16 265.43 458.08 264.91 C 458.24 263.53 457.99 262.15 457.39 260.90 L 457.12 259.99 C 457.27 258.85 457.00 257.83 456.32 256.92 L 456.13 255.95 C 456.28 254.83 456.01 253.82 455.31 252.94 L 455.07 252.02 C 455.25 250.91 455.00 249.91 454.33 249.01 L 453.96 248.16 C 453.78 247.64 453.41 246.61 453.22 246.09 C 453.13 245.59 452.94 244.60 452.84 244.11 C 452.71 243.57 452.45 242.50 452.32 241.96 L 452.14 241.05 C 452.04 239.44 451.41 237.95 450.39 236.71 L 450.01 236.11 C 449.83 235.61 449.47 234.61 449.29 234.11 C 448.21 233.30 447.75 232.24 447.91 230.92 C 447.71 230.38 447.32 229.32 447.12 228.79 L 446.49 227.81 C 446.39 227.61 446.17 227.21 446.06 227.02 L 445.54 225.99 C 445.43 225.78 445.22 225.34 445.11 225.13 L 444.57 224.02 C 444.46 223.80 444.24 223.35 444.13 223.12 L 443.58 222.02 C 443.47 221.79 443.24 221.34 443.13 221.11 L 442.59 220.01 C 442.48 219.78 442.26 219.34 442.15 219.11 L 441.62 218.02 C 441.51 217.81 441.29 217.37 441.18 217.16 L 440.67 216.23 C 440.59 216.07 440.42 215.77 440.34 215.62 C 439.38 213.93 438.37 212.28 437.50 210.55 C 437.44 210.41 437.33 210.13 437.27 209.99 L 437.04 209.13 C 436.88 207.96 436.29 207.08 435.29 206.47 L 434.72 205.92 C 434.63 205.81 434.45 205.59 434.36 205.48 C 433.05 203.61 431.86 201.67 430.54 199.82 C 430.46 199.70 430.29 199.47 430.21 199.35 C 429.78 198.75 428.91 197.54 428.48 196.93 C 428.40 196.82 428.24 196.60 428.16 196.49 C 427.42 195.33 426.48 194.24 426.09 192.91 C 425.92 191.83 425.34 191.08 424.35 190.67 C 423.22 190.09 422.35 189.10 422.09 187.84 C 421.81 186.36 420.76 185.22 419.39 184.66 C 416.67 183.12 415.00 180.33 412.73 178.26 C 410.36 175.64 407.44 173.51 405.30 170.70 C 404.72 169.34 403.67 168.20 402.19 167.88 C 400.71 167.16 398.82 166.40 398.17 164.81 C 397.94 163.68 397.25 163.05 396.11 162.93 C 395.67 162.61 394.80 161.95 394.37 161.63 C 393.90 160.63 393.12 160.05 392.04 159.90 C 391.43 159.62 390.20 159.06 389.59 158.78 C 389.47 158.71 389.24 158.57 389.12 158.49 C 388.50 158.07 387.25 157.22 386.63 156.80 C 386.50 156.71 386.25 156.54 386.12 156.45 C 385.50 156.03 384.27 155.20 383.65 154.78 C 383.54 154.71 383.32 154.57 383.21 154.50 C 381.67 153.56 380.11 152.67 378.56 151.79 C 378.45 151.73 378.24 151.61 378.14 151.55 C 376.73 150.72 375.26 149.91 374.26 148.59 C 373.50 147.40 372.17 146.81 370.79 146.81 L 369.74 146.63 C 369.53 146.56 369.12 146.40 368.91 146.33 L 367.86 145.86 C 367.64 145.75 367.20 145.54 366.98 145.44 L 365.88 144.89 C 365.65 144.77 365.20 144.55 364.97 144.44 L 363.86 143.91 C 363.64 143.80 363.21 143.59 362.99 143.49 L 361.97 142.97 C 361.78 142.86 361.40 142.65 361.21 142.54 L 360.26 141.91 C 359.73 141.68 358.69 141.22 358.16 141.00 L 357.42 140.60 C 356.11 139.68 354.63 139.04 353.06 138.75 L 352.41 138.54 C 351.04 137.67 349.54 137.01 347.92 136.87 L 346.99 136.68 C 346.45 136.53 345.38 136.25 344.84 136.11 L 343.94 135.77 C 343.41 135.62 342.35 135.32 341.82 135.17 C 341.34 135.04 340.40 134.79 339.93 134.67 C 339.04 133.97 338.03 133.73 336.92 133.95 L 335.92 133.78 C 335.38 133.59 334.32 133.21 333.78 133.03 L 332.97 132.69 C 331.77 132.00 330.41 131.71 329.05 131.77 L 328.09 131.61 C 326.77 131.05 325.36 130.79 323.94 130.86 L 323.04 130.60 C 321.74 130.03 320.34 129.79 318.94 129.93 C 318.45 129.85 317.48 129.69 316.99 129.61 C 315.13 128.96 313.16 128.70 311.21 128.93 C 310.52 128.91 309.13 128.87 308.44 128.86 C 299.71 127.28 290.82 128.37 282.02 127.83 C 282.05 126.29 282.06 124.75 282.06 123.21 C 285.46 122.83 288.87 122.40 292.28 122.05 Z" />
</g>
<g id="#8bac63f7">
<path fill="#8bac63" opacity="0.97" d=" M 298.71 122.12 C 303.72 122.02 308.76 121.79 313.77 122.11 C 314.18 122.33 315.02 122.76 315.44 122.98 C 309.84 123.14 304.25 122.85 298.71 122.12 Z" />
</g>
<g id="#acc28ffd">
<path fill="#acc28f" opacity="1.00" d=" M 317.13 123.42 C 317.93 122.29 321.01 122.24 320.98 123.96 C 319.67 124.25 318.31 124.08 317.13 123.42 Z" />
</g>
<g id="#b4bf9bf2">
<path fill="#b4bf9b" opacity="0.95" d=" M 324.04 124.38 C 325.41 123.25 326.40 123.47 327.00 125.02 C 325.91 125.27 324.93 125.06 324.04 124.38 Z" />
</g>
<g id="#b0c293ff">
<path fill="#b0c293" opacity="1.00" d=" M 329.05 125.22 C 329.51 125.17 330.42 125.08 330.87 125.03 L 331.16 125.86 C 330.64 125.70 329.58 125.38 329.05 125.22 Z" />
</g>
<g id="#acbc94f2">
<path fill="#acbc94" opacity="0.95" d=" M 333.06 126.35 C 334.44 125.25 335.44 125.49 336.06 127.05 C 334.94 127.27 333.94 127.03 333.06 126.35 Z" />
</g>
<g id="#aec091ff">
<path fill="#aec091" opacity="1.00" d=" M 337.00 127.23 C 337.46 127.18 338.37 127.07 338.83 127.02 L 339.13 127.84 C 338.60 127.69 337.53 127.38 337.00 127.23 Z" />
</g>
<g id="#adbd94ea">
<path fill="#adbd94" opacity="0.92" d=" M 341.02 128.33 C 342.41 127.26 343.41 127.51 344.02 129.07 C 342.90 129.28 341.90 129.04 341.02 128.33 Z" />
</g>
<g id="#b6ce96ec">
<path fill="#b6ce96" opacity="0.93" d=" M 237.58 129.91 C 242.66 128.15 248.19 129.21 253.47 129.12 C 248.22 130.07 242.89 130.09 237.58 129.91 Z" />
</g>
<g id="#91c541ff">
<path fill="#91c541" opacity="1.00" d=" M 253.47 129.12 C 253.93 129.06 254.86 128.94 255.33 128.89 C 254.98 129.32 254.28 130.20 253.93 130.64 C 251.48 133.09 248.32 134.65 245.48 136.58 C 235.94 144.01 228.13 153.40 221.51 163.45 C 219.32 167.03 217.59 170.99 214.84 174.16 C 214.63 174.64 214.22 175.60 214.02 176.08 C 213.32 179.72 210.72 182.87 209.37 186.37 C 197.89 211.60 190.68 238.93 175.27 262.25 C 170.27 270.02 164.17 277.07 157.35 283.30 C 152.55 288.37 146.01 291.56 139.41 293.62 C 136.63 293.31 133.84 293.04 131.04 293.11 C 130.54 293.10 129.55 293.09 129.06 293.09 C 129.19 251.61 145.39 210.20 174.31 180.33 C 176.64 177.99 178.78 175.47 180.85 172.90 C 179.62 171.63 178.36 170.40 177.07 169.21 C 175.42 170.51 173.75 171.80 172.22 173.24 C 152.88 192.74 138.44 216.95 130.16 243.12 C 125.88 258.49 122.86 274.34 122.78 290.33 L 121.99 289.97 C 117.08 287.98 114.01 283.26 110.31 279.67 C 107.86 274.33 103.71 269.13 104.03 263.00 C 104.28 261.92 104.05 260.94 103.36 260.08 C 103.26 259.31 103.06 257.76 102.97 256.99 C 103.26 255.66 103.08 254.28 102.39 253.10 C 101.92 251.70 101.78 250.26 101.96 248.75 C 102.07 247.29 102.10 245.82 102.00 244.35 C 102.06 242.54 101.64 240.58 102.40 238.88 C 103.09 237.65 103.22 236.22 102.96 234.86 C 103.06 234.37 103.25 233.40 103.35 232.92 C 104.06 231.72 104.27 230.32 104.00 228.97 C 104.08 228.46 104.25 227.45 104.33 226.94 C 105.03 226.06 105.29 225.07 105.09 223.96 L 105.16 223.01 C 105.36 222.51 105.76 221.49 105.96 220.99 C 105.68 219.01 106.85 217.30 107.50 215.53 C 108.86 212.49 109.82 209.28 111.27 206.28 C 116.93 196.60 123.02 186.98 131.21 179.22 C 146.62 163.12 165.89 151.09 186.26 142.28 C 187.74 141.61 189.23 140.64 190.93 140.97 C 191.43 140.80 192.44 140.46 192.95 140.29 C 196.81 138.05 201.49 136.41 205.96 135.96 C 206.46 135.77 207.47 135.39 207.98 135.19 C 208.47 135.12 209.47 134.98 209.96 134.91 C 211.06 135.21 212.08 135.03 213.02 134.36 L 213.91 134.06 C 215.03 134.27 216.04 134.03 216.94 133.33 C 217.43 133.23 218.42 133.02 218.92 132.92 C 220.01 133.24 221.03 133.05 221.95 132.37 C 222.46 132.28 223.49 132.09 224.01 132.00 C 225.37 132.27 226.76 132.04 228.00 131.41 C 228.53 131.34 229.61 131.20 230.15 131.13 C 232.10 131.36 234.07 131.10 235.89 130.36 C 236.31 130.25 237.16 130.03 237.58 129.91 C 242.89 130.09 248.22 130.07 253.47 129.12 Z" />
<path fill="#91c541" opacity="1.00" d=" M 460.24 284.62 C 461.08 289.71 460.45 294.85 460.24 299.96 C 459.28 336.59 445.30 372.68 421.63 400.62 C 419.17 403.61 415.93 406.19 414.65 409.96 C 414.82 412.16 417.42 413.80 419.26 412.26 C 423.74 409.10 426.72 404.32 430.19 400.15 C 448.51 377.04 460.55 349.06 464.95 319.91 C 466.06 310.97 466.67 301.97 466.82 292.96 C 471.08 295.26 473.86 299.48 477.18 302.88 C 480.23 308.51 484.21 314.35 484.06 320.99 C 483.78 322.08 483.97 323.09 484.66 324.01 L 484.88 324.94 C 484.74 326.63 484.93 328.34 485.65 329.90 C 485.78 330.31 486.04 331.14 486.16 331.55 C 486.02 335.54 485.97 339.54 486.09 343.54 C 485.98 343.94 485.77 344.74 485.66 345.13 C 484.91 347.02 484.75 349.06 484.87 351.08 L 484.61 351.97 C 484.00 353.23 483.75 354.63 483.98 356.02 C 483.90 356.54 483.74 357.58 483.66 358.10 C 482.98 358.99 482.75 359.99 482.96 361.10 L 482.84 362.02 C 482.64 362.52 482.23 363.52 482.03 364.03 C 482.33 365.73 481.45 367.26 480.86 368.80 C 475.99 381.29 468.74 392.82 459.81 402.79 C 454.23 407.89 449.51 413.93 443.35 418.36 C 436.51 424.38 428.76 429.27 420.99 434.00 C 415.49 436.84 410.33 440.40 404.43 442.43 C 398.91 445.27 393.06 447.39 387.14 449.23 C 383.49 450.30 379.94 452.34 376.04 452.06 C 375.53 452.26 374.53 452.64 374.03 452.84 C 373.52 452.87 372.49 452.93 371.98 452.96 C 370.60 452.74 369.21 452.98 367.97 453.62 L 367.13 453.91 C 366.02 453.72 365.02 453.97 364.13 454.65 C 363.34 454.76 361.77 454.97 360.99 455.08 C 359.64 454.74 358.25 454.93 357.06 455.61 C 356.55 455.70 355.54 455.87 355.03 455.96 C 353.01 455.71 350.97 455.92 349.07 456.66 C 348.30 456.75 346.75 456.93 345.98 457.02 C 343.64 456.74 341.25 456.77 339.04 457.64 C 338.49 457.80 337.40 458.11 336.85 458.27 C 336.91 457.81 337.02 456.89 337.08 456.43 C 349.04 450.14 358.34 439.90 365.75 428.78 C 370.31 421.51 374.80 414.16 378.14 406.24 C 378.77 404.77 379.08 403.09 380.25 401.91 C 380.43 401.42 380.79 400.42 380.98 399.93 C 381.22 397.37 382.82 395.12 383.63 392.69 C 385.87 387.93 386.37 382.33 389.29 377.96 C 389.45 377.45 389.79 376.45 389.96 375.94 C 391.11 370.00 393.71 364.41 395.69 358.70 C 402.17 340.01 410.50 321.58 423.24 306.27 C 428.58 300.89 433.62 294.84 440.62 291.56 C 446.49 288.39 453.66 287.42 459.99 289.78 C 460.01 288.06 460.08 286.33 460.24 284.62 Z" />
</g>
<g id="#c3d29cea">
<path fill="#c3d29c" opacity="0.92" d=" M 255.33 128.89 C 257.35 129.34 255.03 132.29 253.93 130.64 C 254.28 130.20 254.98 129.32 255.33 128.89 Z" />
</g>
<g id="#a4b685f0">
<path fill="#a4b685" opacity="0.94" d=" M 311.21 128.93 C 313.16 128.70 315.13 128.96 316.99 129.61 C 315.54 130.47 311.52 130.96 311.21 128.93 Z" />
</g>
<g id="#b8cba0fa">
<path fill="#b8cba0" opacity="0.98" d=" M 344.99 129.19 C 345.45 129.17 346.37 129.13 346.83 129.11 L 347.08 129.97 C 346.56 129.77 345.51 129.39 344.99 129.19 Z" />
</g>
<g id="#afc895ea">
<path fill="#afc895" opacity="0.92" d=" M 230.15 131.13 C 230.61 129.13 234.40 129.50 235.89 130.36 C 234.07 131.10 232.10 131.36 230.15 131.13 Z" />
</g>
<g id="#b0c28bfd">
<path fill="#b0c28b" opacity="1.00" d=" M 318.94 129.93 C 320.34 129.79 321.74 130.03 323.04 130.60 C 322.08 131.66 318.98 131.71 318.94 129.93 Z" />
</g>
<g id="#b3c397f4">
<path fill="#b3c397" opacity="0.96" d=" M 348.02 130.19 C 348.47 130.17 349.38 130.13 349.83 130.11 L 350.04 130.99 C 349.54 130.79 348.52 130.39 348.02 130.19 Z" />
</g>
<g id="#bdd4a4f5">
<path fill="#bdd4a4" opacity="0.96" d=" M 224.01 132.00 C 224.10 130.30 227.10 130.32 228.00 131.41 C 226.76 132.04 225.37 132.27 224.01 132.00 Z" />
</g>
<g id="#a7bb87ef">
<path fill="#a7bb87" opacity="0.94" d=" M 323.94 130.86 C 325.36 130.79 326.77 131.05 328.09 131.61 C 327.09 132.70 324.07 132.63 323.94 130.86 Z" />
</g>
<g id="#91ac6aec">
<path fill="#91ac6a" opacity="0.93" d=" M 350.66 131.38 C 351.78 130.27 355.30 131.41 354.78 133.11 C 353.25 132.98 351.83 132.35 350.66 131.38 Z" />
</g>
<g id="#c3daa9fc">
<path fill="#c3daa9" opacity="1.00" d=" M 218.92 132.92 C 219.59 131.43 220.60 131.25 221.95 132.37 C 221.03 133.05 220.01 133.24 218.92 132.92 Z" />
</g>
<g id="#91a670df">
<path fill="#91a670" opacity="0.87" d=" M 329.05 131.77 C 330.41 131.71 331.77 132.00 332.97 132.69 C 332.00 133.83 329.07 133.50 329.05 131.77 Z" />
</g>
<g id="#bed4a5f1">
<path fill="#bed4a5" opacity="0.95" d=" M 213.91 134.06 C 214.53 132.51 215.54 132.27 216.94 133.33 C 216.04 134.03 215.03 134.27 213.91 134.06 Z" />
</g>
<g id="#b2c68fff">
<path fill="#b2c68f" opacity="1.00" d=" M 333.78 133.03 C 334.32 133.21 335.38 133.59 335.92 133.78 C 335.45 133.81 334.52 133.86 334.05 133.88 L 333.78 133.03 Z" />
</g>
<g id="#8ead65f4">
<path fill="#8ead65" opacity="0.96" d=" M 355.42 133.24 C 359.18 133.18 362.70 135.01 365.70 137.13 C 362.15 136.18 358.72 134.83 355.42 133.24 Z" />
</g>
<g id="#c4dea7ff">
<path fill="#c4dea7" opacity="1.00" d=" M 209.96 134.91 C 210.63 133.43 211.65 133.24 213.02 134.36 C 212.08 135.03 211.06 135.21 209.96 134.91 Z" />
</g>
<g id="#adbe90f1">
<path fill="#adbe90" opacity="0.95" d=" M 336.92 133.95 C 338.03 133.73 339.04 133.97 339.93 134.67 C 338.53 135.74 337.53 135.50 336.92 133.95 Z" />
</g>
<g id="#c8e1b3ff">
<path fill="#c8e1b3" opacity="1.00" d=" M 206.17 135.09 C 206.62 135.12 207.53 135.17 207.98 135.19 C 207.47 135.39 206.46 135.77 205.96 135.96 L 206.17 135.09 Z" />
</g>
<g id="#9eb579ff">
<path fill="#9eb579" opacity="1.00" d=" M 341.82 135.17 C 342.35 135.32 343.41 135.62 343.94 135.77 C 343.49 135.82 342.57 135.94 342.12 135.99 L 341.82 135.17 Z" />
</g>
<g id="#a5bc85ff">
<path fill="#a5bc85" opacity="1.00" d=" M 344.84 136.11 C 345.38 136.25 346.45 136.53 346.99 136.68 C 346.54 136.74 345.62 136.87 345.16 136.94 L 344.84 136.11 Z" />
</g>
<g id="#89a366e8">
<path fill="#89a366" opacity="0.91" d=" M 347.92 136.87 C 349.54 137.01 351.04 137.67 352.41 138.54 C 351.18 139.66 347.83 138.61 347.92 136.87 Z" />
</g>
<g id="#b9cc9aff">
<path fill="#b9cc9a" opacity="1.00" d=" M 366.57 137.43 C 366.73 137.50 367.05 137.64 367.22 137.70 C 367.05 137.64 366.73 137.50 366.57 137.43 Z" />
</g>
<g id="#c4d3aaff">
<path fill="#c4d3aa" opacity="1.00" d=" M 368.17 138.15 C 368.39 138.25 368.82 138.46 369.03 138.56 C 368.82 138.46 368.39 138.25 368.17 138.15 Z" />
</g>
<g id="#8ba16ee2">
<path fill="#8ba16e" opacity="0.89" d=" M 353.06 138.75 C 354.63 139.04 356.11 139.68 357.42 140.60 C 356.17 141.64 352.72 140.57 353.06 138.75 Z" />
</g>
<g id="#c3d1a8ff">
<path fill="#c3d1a8" opacity="1.00" d=" M 370.12 139.11 C 370.35 139.22 370.80 139.45 371.02 139.56 C 370.80 139.45 370.35 139.22 370.12 139.11 Z" />
</g>
<g id="#c8e4b2ff">
<path fill="#c8e4b2" opacity="1.00" d=" M 191.16 140.09 L 192.20 139.75 L 192.95 140.29 C 192.44 140.46 191.43 140.80 190.93 140.97 L 191.16 140.09 Z" />
</g>
<g id="#bccea3ff">
<path fill="#bccea3" opacity="1.00" d=" M 372.13 140.11 C 372.35 140.22 372.80 140.44 373.03 140.55 C 372.80 140.44 372.35 140.22 372.13 140.11 Z" />
</g>
<g id="#919d85c5">
<path fill="#919d85" opacity="0.77" d=" M 358.16 141.00 C 358.69 141.22 359.73 141.68 360.26 141.91 C 359.79 141.90 358.85 141.87 358.39 141.86 L 358.16 141.00 Z" />
</g>
<g id="#b9c993ff">
<path fill="#b9c993" opacity="1.00" d=" M 374.13 141.11 C 374.36 141.22 374.80 141.44 375.02 141.55 C 374.80 141.44 374.36 141.22 374.13 141.11 Z" />
</g>
<g id="#afc097ff">
<path fill="#afc097" opacity="1.00" d=" M 361.21 142.54 C 361.40 142.65 361.78 142.86 361.97 142.97 C 361.78 142.86 361.40 142.65 361.21 142.54 Z" />
</g>
<g id="#c1cfa5ff">
<path fill="#c1cfa5" opacity="1.00" d=" M 376.11 142.10 C 376.32 142.21 376.74 142.43 376.95 142.54 C 376.74 142.43 376.32 142.21 376.11 142.10 Z" />
</g>
<g id="#b5c3a7ff">
<path fill="#b5c3a7" opacity="1.00" d=" M 362.99 143.49 C 363.21 143.59 363.64 143.80 363.86 143.91 C 363.64 143.80 363.21 143.59 362.99 143.49 Z" />
</g>
<g id="#cedab9ff">
<path fill="#cedab9" opacity="1.00" d=" M 377.88 143.02 C 378.04 143.10 378.35 143.27 378.51 143.35 C 378.35 143.27 378.04 143.10 377.88 143.02 Z" />
</g>
<g id="#bfcab0ff">
<path fill="#bfcab0" opacity="1.00" d=" M 364.97 144.44 C 365.20 144.55 365.65 144.77 365.88 144.89 C 365.65 144.77 365.20 144.55 364.97 144.44 Z" />
</g>
<g id="#becaaaff">
<path fill="#becaaa" opacity="1.00" d=" M 366.98 145.44 C 367.20 145.54 367.64 145.75 367.86 145.86 C 367.64 145.75 367.20 145.54 366.98 145.44 Z" />
</g>
<g id="#b9c8a2ff">
<path fill="#b9c8a2" opacity="1.00" d=" M 368.91 146.33 C 369.12 146.40 369.53 146.56 369.74 146.63 C 369.53 146.56 369.12 146.40 368.91 146.33 Z" />
</g>
<g id="#ccd9b5ff">
<path fill="#ccd9b5" opacity="1.00" d=" M 383.61 146.30 C 383.75 146.38 384.02 146.54 384.16 146.61 C 384.02 146.54 383.75 146.38 383.61 146.30 Z" />
</g>
<g id="#91b26bf5">
<path fill="#91b26b" opacity="0.96" d=" M 370.79 146.81 C 372.17 146.81 373.50 147.40 374.26 148.59 C 373.14 149.48 370.70 148.25 370.79 146.81 Z" />
</g>
<g id="#d3debbff">
<path fill="#d3debb" opacity="1.00" d=" M 384.92 147.05 C 385.09 147.14 385.42 147.33 385.58 147.43 C 385.42 147.33 385.09 147.14 384.92 147.05 Z" />
</g>
<g id="#bcc2b1d6">
<path fill="#bcc2b1" opacity="0.84" d=" M 388.40 149.20 C 388.51 149.28 388.73 149.43 388.84 149.51 C 388.73 149.43 388.51 149.28 388.40 149.20 Z" />
</g>
<g id="#bfc8b6e6">
<path fill="#bfc8b6" opacity="0.90" d=" M 378.14 151.55 C 378.24 151.61 378.45 151.73 378.56 151.79 C 378.45 151.73 378.24 151.61 378.14 151.55 Z" />
</g>
<g id="#99b679f1">
<path fill="#99b679" opacity="0.95" d=" M 390.59 151.34 C 392.13 150.77 392.93 151.33 392.99 153.01 C 391.85 152.94 391.06 152.38 390.59 151.34 Z" />
</g>
<g id="#b7bfadd6">
<path fill="#b7bfad" opacity="0.84" d=" M 383.21 154.50 C 383.32 154.57 383.54 154.71 383.65 154.78 C 383.54 154.71 383.32 154.57 383.21 154.50 Z" />
</g>
<g id="#b0c59aff">
<path fill="#b0c59a" opacity="1.00" d=" M 395.47 154.09 C 395.56 154.16 395.75 154.30 395.84 154.37 C 395.75 154.30 395.56 154.16 395.47 154.09 Z" />
</g>
<g id="#c7d6b2ff">
<path fill="#c7d6b2" opacity="1.00" d=" M 386.12 156.45 C 386.25 156.54 386.50 156.71 386.63 156.80 C 386.50 156.71 386.25 156.54 386.12 156.45 Z" />
</g>
<g id="#cadabdfd">
<path fill="#cadabd" opacity="1.00" d=" M 399.50 157.19 C 399.60 157.27 399.79 157.43 399.88 157.52 C 399.79 157.43 399.60 157.27 399.50 157.19 Z" />
</g>
<g id="#b8cca3ff">
<path fill="#b8cca3" opacity="1.00" d=" M 389.12 158.49 C 389.24 158.57 389.47 158.71 389.59 158.78 C 389.47 158.71 389.24 158.57 389.12 158.49 Z" />
</g>
<g id="#89ae67f7">
<path fill="#89ae67" opacity="0.97" d=" M 401.54 159.39 C 402.86 158.36 405.43 160.64 404.85 162.08 C 403.37 161.74 402.24 160.70 401.54 159.39 Z" />
</g>
<g id="#86a06be7">
<path fill="#86a06b" opacity="0.91" d=" M 392.04 159.90 C 393.12 160.05 393.90 160.63 394.37 161.63 C 392.75 162.18 391.98 161.61 392.04 159.90 Z" />
</g>
<g id="#92af71fb">
<path fill="#92af71" opacity="1.00" d=" M 396.11 162.93 C 397.25 163.05 397.94 163.68 398.17 164.81 C 396.59 165.17 395.90 164.54 396.11 162.93 Z" />
</g>
<g id="#8db565ff">
<path fill="#8db565" opacity="1.00" d=" M 408.57 165.02 C 411.52 165.94 413.29 168.80 415.23 171.02 C 412.61 169.51 410.39 167.43 408.57 165.02 Z" />
</g>
<g id="#91aa76fa">
<path fill="#91aa76" opacity="0.98" d=" M 402.19 167.88 C 403.67 168.20 404.72 169.34 405.30 170.70 C 403.97 171.63 401.49 169.24 402.19 167.88 Z" />
</g>
<g id="#4d8e02ff">
<path fill="#4d8e02" opacity="1.00" d=" M 172.22 173.24 C 173.75 171.80 175.42 170.51 177.07 169.21 C 178.36 170.40 179.62 171.63 180.85 172.90 C 178.78 175.47 176.64 177.99 174.31 180.33 C 145.39 210.20 129.19 251.61 129.06 293.09 C 129.06 293.75 129.06 295.08 129.06 295.74 C 128.85 300.33 128.87 304.95 129.87 309.46 C 129.89 310.13 129.94 311.47 129.96 312.14 C 129.72 314.15 129.97 316.17 130.61 318.08 L 130.80 318.93 C 130.80 320.67 131.07 322.40 131.63 324.06 L 131.84 324.93 C 131.79 326.34 132.05 327.74 132.62 329.04 L 132.88 329.96 C 132.73 331.08 132.99 332.10 133.68 333.01 L 133.95 333.92 C 133.75 335.02 133.98 336.03 134.65 336.94 C 134.75 337.44 134.95 338.43 135.05 338.92 C 135.24 339.44 135.62 340.47 135.81 340.98 L 136.03 341.89 C 136.22 342.40 136.61 343.42 136.80 343.94 L 137.06 344.81 C 137.20 345.33 137.48 346.35 137.62 346.87 L 137.94 347.61 C 138.71 350.31 139.65 352.97 140.71 355.58 L 140.83 356.20 C 140.93 357.68 141.51 359.10 142.62 360.12 C 143.51 361.10 144.22 362.21 144.73 363.44 C 144.81 363.60 144.96 363.93 145.04 364.09 L 145.49 365.03 C 145.59 365.24 145.78 365.66 145.88 365.87 L 146.34 366.91 C 146.41 367.12 146.57 367.53 146.64 367.74 L 146.85 368.79 C 146.91 370.26 147.59 371.63 148.77 372.53 L 149.28 373.05 C 149.37 373.16 149.55 373.37 149.64 373.47 C 150.72 374.96 151.65 376.54 152.57 378.13 C 152.63 378.24 152.76 378.46 152.82 378.56 C 153.71 380.11 154.65 381.62 155.56 383.16 C 155.62 383.27 155.75 383.50 155.81 383.61 C 156.10 384.23 156.67 385.49 156.96 386.11 C 157.19 387.21 157.81 388.02 158.81 388.56 L 159.37 389.04 C 159.46 389.14 159.65 389.35 159.74 389.46 C 160.51 390.63 161.52 391.72 161.92 393.10 C 162.09 394.16 162.67 394.92 163.66 395.38 C 163.99 395.80 164.65 396.64 164.98 397.05 C 165.08 398.15 165.64 398.92 166.67 399.36 C 168.39 400.51 169.81 402.08 170.97 403.78 C 172.25 406.03 174.00 407.98 176.21 409.36 C 176.52 409.59 177.13 410.05 177.43 410.27 C 177.51 410.35 177.68 410.50 177.77 410.57 C 177.99 410.85 178.45 411.42 178.68 411.70 C 180.27 414.35 182.49 416.55 185.21 418.03 C 186.51 418.94 187.90 419.90 188.69 421.33 C 189.07 422.38 189.82 422.95 190.94 423.04 C 192.21 423.14 192.94 424.39 193.63 425.32 C 194.08 426.32 194.85 426.91 195.94 427.08 C 196.56 427.34 197.82 427.88 198.44 428.15 C 198.55 428.22 198.78 428.36 198.89 428.43 C 199.31 428.90 200.16 429.83 200.58 430.30 C 201.05 431.31 201.83 431.89 202.93 432.04 C 203.38 432.38 204.26 433.06 204.70 433.40 C 205.37 434.52 206.56 435.13 207.85 435.21 C 208.54 435.48 209.91 436.02 210.60 436.30 C 210.74 436.37 211.03 436.53 211.17 436.60 L 211.92 437.03 C 212.09 437.13 212.41 437.31 212.57 437.41 C 213.32 437.87 214.81 438.79 215.56 439.25 C 215.72 439.34 216.03 439.52 216.18 439.61 L 216.95 440.01 C 217.10 440.08 217.41 440.23 217.56 440.30 C 218.93 440.94 220.28 441.61 221.61 442.33 C 221.76 442.40 222.05 442.55 222.19 442.63 L 222.96 443.01 C 223.10 443.08 223.40 443.22 223.55 443.29 C 225.41 444.23 227.53 444.81 229.09 446.25 C 229.59 446.45 230.57 446.84 231.07 447.04 L 231.68 447.41 C 232.93 448.36 234.39 448.99 235.95 449.24 L 236.61 449.45 C 237.96 450.31 239.45 450.98 241.07 451.13 L 241.99 451.33 C 242.52 451.47 243.59 451.76 244.12 451.91 L 244.99 452.22 C 245.50 452.39 246.53 452.71 247.04 452.88 C 247.41 452.93 248.15 453.02 248.52 453.07 C 251.03 454.00 253.63 454.68 256.28 455.15 L 257.07 455.41 C 257.92 456.10 258.89 456.36 259.97 456.18 L 260.95 456.35 C 261.91 456.99 262.95 457.20 264.08 456.97 C 264.57 457.08 265.55 457.29 266.04 457.39 C 267.25 458.02 268.62 458.24 269.98 458.10 C 270.48 458.17 271.49 458.32 272.00 458.39 C 273.83 459.04 275.78 459.32 277.72 459.10 C 278.43 459.11 279.84 459.14 280.54 459.15 C 290.87 460.80 301.37 459.67 311.77 459.75 L 313.11 459.86 L 312.97 461.13 C 313.00 461.57 313.07 462.44 313.10 462.88 L 313.38 463.89 C 310.49 464.66 307.60 465.39 304.66 465.94 C 297.94 466.80 291.11 466.45 284.39 465.83 C 280.81 465.15 277.17 464.92 273.53 464.99 C 273.12 464.89 272.29 464.70 271.88 464.61 C 270.34 463.98 268.70 463.71 267.06 463.74 L 266.10 463.59 C 264.81 463.04 263.41 462.78 262.01 462.98 C 261.50 462.90 260.49 462.74 259.98 462.66 C 259.08 461.96 258.07 461.71 256.95 461.92 L 256.01 461.67 C 255.08 461.00 254.05 460.76 252.93 460.96 L 252.05 460.69 C 251.17 459.97 250.17 459.69 249.05 459.85 L 248.07 459.66 C 247.13 459.00 246.09 458.77 244.96 458.97 L 243.99 458.80 C 243.48 458.61 242.46 458.21 241.95 458.01 L 241.31 457.63 C 240.02 456.64 238.52 455.99 236.91 455.88 L 236.01 455.69 C 235.49 455.53 234.46 455.19 233.94 455.03 L 233.30 454.62 C 232.04 453.59 230.53 452.94 228.91 452.85 L 227.96 452.66 C 227.41 452.51 226.31 452.20 225.76 452.05 L 224.71 451.73 C 224.50 451.64 224.10 451.46 223.89 451.37 L 222.85 450.88 C 222.63 450.77 222.19 450.55 221.98 450.44 L 220.89 449.89 C 220.66 449.77 220.21 449.55 219.99 449.43 L 218.89 448.88 C 218.66 448.77 218.21 448.55 217.98 448.44 L 216.88 447.90 C 216.66 447.79 216.23 447.56 216.01 447.45 L 215.03 446.92 C 214.86 446.80 214.50 446.57 214.32 446.45 L 213.61 445.80 C 212.72 444.82 211.60 443.64 210.13 443.95 L 209.25 443.98 C 209.02 443.62 208.56 442.92 208.33 442.56 C 207.82 441.30 206.42 440.93 205.19 440.91 C 202.90 440.87 201.40 438.87 199.56 437.79 C 199.45 437.71 199.23 437.56 199.11 437.48 C 198.50 437.07 197.26 436.24 196.64 435.82 C 196.52 435.74 196.26 435.56 196.13 435.48 C 195.51 435.05 194.27 434.21 193.65 433.79 C 193.54 433.71 193.32 433.54 193.21 433.46 C 191.63 432.26 190.10 431.01 188.55 429.80 C 188.45 429.72 188.27 429.57 188.18 429.49 C 187.75 429.08 186.91 428.26 186.48 427.84 C 184.82 425.97 182.95 424.29 180.80 423.01 C 179.72 422.28 178.61 421.57 177.68 420.66 C 177.61 420.59 177.47 420.44 177.40 420.37 C 176.32 419.16 175.28 417.93 174.38 416.60 C 173.68 415.34 172.64 414.34 171.41 413.62 C 169.07 411.68 166.38 409.69 165.09 406.92 C 164.96 405.81 164.36 405.09 163.29 404.77 C 160.39 403.03 158.60 399.83 157.11 396.89 C 156.91 395.82 156.32 395.07 155.32 394.63 C 154.87 394.18 153.96 393.29 153.51 392.84 C 153.43 392.73 153.26 392.51 153.18 392.40 C 152.76 391.77 151.91 390.52 151.49 389.89 C 151.40 389.76 151.23 389.51 151.15 389.38 C 150.73 388.76 149.90 387.53 149.49 386.91 C 149.41 386.78 149.24 386.53 149.16 386.40 C 148.72 385.69 147.86 384.28 147.42 383.58 C 147.33 383.41 147.14 383.09 147.05 382.92 L 146.62 382.17 C 146.53 382.02 146.36 381.72 146.27 381.58 C 145.82 380.81 144.90 379.28 144.44 378.51 C 144.35 378.34 144.16 378.01 144.06 377.84 L 143.58 376.97 C 143.47 376.77 143.26 376.38 143.15 376.18 L 142.65 375.27 C 142.57 375.11 142.40 374.81 142.32 374.65 C 141.60 373.29 140.92 371.92 140.29 370.53 C 140.22 370.36 140.07 370.04 139.99 369.88 L 139.55 368.94 C 139.45 368.72 139.23 368.29 139.12 368.07 L 138.58 367.01 C 138.47 366.80 138.25 366.37 138.14 366.16 L 137.65 365.22 C 137.57 365.06 137.41 364.74 137.33 364.58 C 136.61 363.42 136.17 362.18 136.00 360.86 C 135.79 360.37 135.36 359.39 135.15 358.89 L 134.94 358.00 C 134.74 357.46 134.34 356.39 134.14 355.86 L 133.57 354.97 C 133.48 354.79 133.29 354.42 133.20 354.24 C 133.00 353.64 132.58 352.46 132.38 351.87 C 132.33 351.68 132.22 351.31 132.17 351.13 L 132.00 350.16 C 131.81 349.62 131.42 348.55 131.23 348.02 L 130.96 347.05 C 130.77 346.53 130.39 345.47 130.20 344.95 L 130.11 343.96 C 130.27 342.85 130.00 341.86 129.31 340.98 L 129.01 340.11 C 129.21 338.99 129.00 337.95 128.36 337.01 L 128.03 336.10 C 128.22 334.97 127.99 333.94 127.35 333.01 L 127.06 332.08 C 127.26 330.96 127.02 329.96 126.36 329.05 C 126.27 328.56 126.09 327.57 126.00 327.07 C 126.23 325.97 126.02 324.97 125.36 324.06 C 125.29 323.54 125.13 322.51 125.05 321.99 C 125.24 320.64 125.04 319.28 124.40 318.08 C 124.30 317.29 124.10 315.71 124.00 314.92 C 124.26 312.94 124.05 310.95 123.39 309.07 C 123.07 307.91 122.90 306.73 122.87 305.54 C 123.08 300.47 123.02 295.39 122.78 290.33 C 122.86 274.34 125.88 258.49 130.16 243.12 C 138.44 216.95 152.88 192.74 172.22 173.24 Z" />
</g>
<g id="#89b15fff">
<path fill="#89b15f" opacity="1.00" d=" M 416.99 172.77 C 419.19 174.73 422.10 176.47 422.96 179.45 C 420.57 177.61 418.51 175.38 416.99 172.77 Z" />
</g>
<g id="#d3e9aeff">
<path fill="#d3e9ae" opacity="1.00" d=" M 214.02 176.08 C 214.22 175.60 214.63 174.64 214.84 174.16 C 214.85 174.60 214.88 175.49 214.90 175.93 L 214.02 176.08 Z" />
</g>
<g id="#85a46af3">
<path fill="#85a46a" opacity="0.95" d=" M 419.39 184.66 C 420.76 185.22 421.81 186.36 422.09 187.84 C 420.68 188.46 418.43 185.97 419.39 184.66 Z" />
</g>
<g id="#d0ddaeff">
<path fill="#d0ddae" opacity="1.00" d=" M 428.50 185.15 C 428.57 185.24 428.71 185.44 428.79 185.54 C 428.71 185.44 428.57 185.24 428.50 185.15 Z" />
</g>
<g id="#a2c27eff">
<path fill="#a2c27e" opacity="1.00" d=" M 430.92 189.12 C 432.62 189.00 433.23 189.74 432.75 191.35 C 431.72 190.95 431.10 190.20 430.92 189.12 Z" />
</g>
<g id="#8dab75f2">
<path fill="#8dab75" opacity="0.95" d=" M 424.35 190.67 C 425.34 191.08 425.92 191.83 426.09 192.91 C 424.37 193.01 423.79 192.26 424.35 190.67 Z" />
</g>
<g id="#c3d5a4ff">
<path fill="#c3d5a4" opacity="1.00" d=" M 434.51 193.15 C 434.59 193.27 434.75 193.49 434.83 193.61 C 434.75 193.49 434.59 193.27 434.51 193.15 Z" />
</g>
<g id="#c9d7b1ff">
<path fill="#c9d7b1" opacity="1.00" d=" M 428.16 196.49 C 428.24 196.60 428.40 196.82 428.48 196.93 C 428.40 196.82 428.24 196.60 428.16 196.49 Z" />
</g>
<g id="#bfcfa3ff">
<path fill="#bfcfa3" opacity="1.00" d=" M 436.50 196.11 C 436.59 196.24 436.76 196.49 436.84 196.61 C 436.76 196.49 436.59 196.24 436.50 196.11 Z" />
</g>
<g id="#ccd7bbff">
<path fill="#ccd7bb" opacity="1.00" d=" M 430.21 199.35 C 430.29 199.47 430.46 199.70 430.54 199.82 C 430.46 199.70 430.29 199.47 430.21 199.35 Z" />
</g>
<g id="#b8c89cff">
<path fill="#b8c89c" opacity="1.00" d=" M 438.52 199.10 C 438.59 199.21 438.74 199.43 438.81 199.54 C 438.74 199.43 438.59 199.21 438.52 199.10 Z" />
</g>
<g id="#b8bdadd6">
<path fill="#b8bdad" opacity="0.84" d=" M 434.36 205.48 C 434.45 205.59 434.63 205.81 434.72 205.92 C 434.63 205.81 434.45 205.59 434.36 205.48 Z" />
</g>
<g id="#849f66e7">
<path fill="#849f66" opacity="0.91" d=" M 435.29 206.47 C 436.29 207.08 436.88 207.96 437.04 209.13 C 435.35 208.94 434.77 208.06 435.29 206.47 Z" />
</g>
<g id="#88ab62ef">
<path fill="#88ab62" opacity="0.94" d=" M 442.98 207.11 C 444.74 206.85 446.44 210.07 445.82 211.64 C 444.40 210.47 443.31 208.94 442.98 207.11 Z" />
</g>
<g id="#b2b8acd1">
<path fill="#b2b8ac" opacity="0.82" d=" M 437.27 209.99 C 437.33 210.13 437.44 210.41 437.50 210.55 C 437.44 210.41 437.33 210.13 437.27 209.99 Z" />
</g>
<g id="#cadba9ff">
<path fill="#cadba9" opacity="1.00" d=" M 446.46 212.30 C 446.58 212.48 446.81 212.84 446.93 213.02 C 446.81 212.84 446.58 212.48 446.46 212.30 Z" />
</g>
<g id="#d2e1b7ff">
<path fill="#d2e1b7" opacity="1.00" d=" M 447.46 214.00 C 447.57 214.22 447.80 214.65 447.91 214.87 C 447.80 214.65 447.57 214.22 447.46 214.00 Z" />
</g>
<g id="#c7d1bbf4">
<path fill="#c7d1bb" opacity="0.96" d=" M 440.34 215.62 C 440.42 215.77 440.59 216.07 440.67 216.23 C 440.59 216.07 440.42 215.77 440.34 215.62 Z" />
</g>
<g id="#cfdeb4ff">
<path fill="#cfdeb4" opacity="1.00" d=" M 448.45 215.97 C 448.56 216.20 448.78 216.65 448.89 216.88 C 448.78 216.65 448.56 216.20 448.45 215.97 Z" />
</g>
<g id="#b5c8a1ff">
<path fill="#b5c8a1" opacity="1.00" d=" M 441.18 217.16 C 441.29 217.37 441.51 217.81 441.62 218.02 C 441.51 217.81 441.29 217.37 441.18 217.16 Z" />
</g>
<g id="#cfdeafff">
<path fill="#cfdeaf" opacity="1.00" d=" M 449.44 217.98 C 449.55 218.21 449.78 218.66 449.89 218.88 C 449.78 218.66 449.55 218.21 449.44 217.98 Z" />
</g>
<g id="#c0cda9ff">
<path fill="#c0cda9" opacity="1.00" d=" M 442.15 219.11 C 442.26 219.34 442.48 219.78 442.59 220.01 C 442.48 219.78 442.26 219.34 442.15 219.11 Z" />
</g>
<g id="#c4d5a4ff">
<path fill="#c4d5a4" opacity="1.00" d=" M 450.45 219.97 C 450.56 220.19 450.77 220.63 450.88 220.84 C 450.77 220.63 450.56 220.19 450.45 219.97 Z" />
</g>
<g id="#d0e4aeff">
<path fill="#d0e4ae" opacity="1.00" d=" M 105.09 221.19 L 105.96 220.99 C 105.76 221.49 105.36 222.51 105.16 223.01 C 105.14 222.56 105.11 221.64 105.09 221.19 Z" />
</g>
<g id="#ced4bdfd">
<path fill="#ced4bd" opacity="1.00" d=" M 443.13 221.11 C 443.24 221.34 443.47 221.79 443.58 222.02 C 443.47 221.79 443.24 221.34 443.13 221.11 Z" />
</g>
<g id="#c7d9a8ff">
<path fill="#c7d9a8" opacity="1.00" d=" M 451.38 221.89 C 451.46 222.09 451.64 222.50 451.73 222.71 C 451.64 222.50 451.46 222.09 451.38 221.89 Z" />
</g>
<g id="#c3d2b5ff">
<path fill="#c3d2b5" opacity="1.00" d=" M 444.13 223.12 C 444.24 223.35 444.46 223.80 444.57 224.02 C 444.46 223.80 444.24 223.35 444.13 223.12 Z" />
</g>
<g id="#bfd1a1ea">
<path fill="#bfd1a1" opacity="0.92" d=" M 104.33 226.94 C 103.26 225.54 103.52 224.54 105.09 223.96 C 105.29 225.07 105.03 226.06 104.33 226.94 Z" />
</g>
<g id="#abc987ff">
<path fill="#abc987" opacity="1.00" d=" M 452.03 223.81 L 452.89 224.08 C 452.90 224.56 452.93 225.51 452.94 225.99 C 452.71 225.44 452.26 224.35 452.03 223.81 Z" />
</g>
<g id="#b8c9a3ff">
<path fill="#b8c9a3" opacity="1.00" d=" M 445.11 225.13 C 445.22 225.34 445.43 225.78 445.54 225.99 C 445.43 225.78 445.22 225.34 445.11 225.13 Z" />
</g>
<g id="#bbcba9ff">
<path fill="#bbcba9" opacity="1.00" d=" M 446.06 227.02 C 446.17 227.21 446.39 227.61 446.49 227.81 C 446.39 227.61 446.17 227.21 446.06 227.02 Z" />
</g>
<g id="#b3ce94ff">
<path fill="#b3ce94" opacity="1.00" d=" M 453.55 226.97 C 453.63 227.16 453.78 227.55 453.85 227.74 C 453.78 227.55 453.63 227.16 453.55 226.97 Z" />
</g>
<g id="#c9dea5f9">
<path fill="#c9dea5" opacity="0.98" d=" M 103.35 232.92 C 102.34 232.00 102.30 229.00 104.00 228.97 C 104.27 230.32 104.06 231.72 103.35 232.92 Z" />
</g>
<g id="#99b479ff">
<path fill="#99b479" opacity="1.00" d=" M 447.12 228.79 C 447.32 229.32 447.71 230.38 447.91 230.92 L 447.06 230.68 C 447.07 230.21 447.10 229.26 447.12 228.79 Z" />
</g>
<g id="#abc48df4">
<path fill="#abc48d" opacity="0.96" d=" M 454.06 228.83 L 454.90 229.15 C 454.89 229.63 454.86 230.59 454.85 231.06 C 454.65 230.51 454.26 229.39 454.06 228.83 Z" />
</g>
<g id="#b6d097ff">
<path fill="#b6d097" opacity="1.00" d=" M 455.46 232.02 C 455.55 232.20 455.73 232.57 455.82 232.75 C 455.73 232.57 455.55 232.20 455.46 232.02 Z" />
</g>
<g id="#aabe8afa">
<path fill="#aabe8a" opacity="0.98" d=" M 449.29 234.11 C 449.47 234.61 449.83 235.61 450.01 236.11 L 449.13 235.89 L 448.76 234.86 L 449.29 234.11 Z" />
</g>
<g id="#b5cf95ff">
<path fill="#b5cf95" opacity="1.00" d=" M 456.06 233.76 L 456.91 234.11 C 456.85 234.57 456.73 235.49 456.67 235.96 C 456.52 235.41 456.22 234.31 456.06 233.76 Z" />
</g>
<g id="#d4e6b4fd">
<path fill="#d4e6b4" opacity="1.00" d=" M 102.40 238.88 C 101.36 237.98 101.28 234.96 102.96 234.86 C 103.22 236.22 103.09 237.65 102.40 238.88 Z" />
</g>
<g id="#7f9b61e3">
<path fill="#7f9b61" opacity="0.89" d=" M 450.39 236.71 C 451.41 237.95 452.04 239.44 452.14 241.05 C 450.42 241.19 449.39 237.93 450.39 236.71 Z" />
</g>
<g id="#88a762ea">
<path fill="#88a762" opacity="0.92" d=" M 456.86 236.94 C 458.74 237.00 459.68 240.67 458.66 242.13 C 457.65 240.56 457.01 238.79 456.86 236.94 Z" />
</g>
<g id="#93c644ff">
<path fill="#93c644" opacity="1.00" d=" M 288.27 238.15 C 291.79 237.77 295.36 237.98 298.90 238.02 C 304.52 239.57 310.35 242.45 313.40 247.65 C 314.55 249.61 316.43 251.59 315.95 254.03 C 315.69 255.09 315.92 256.05 316.63 256.91 C 317.34 259.15 317.26 261.84 316.62 264.10 C 315.91 264.95 315.69 265.91 315.95 266.98 C 316.44 269.42 314.51 271.37 313.38 273.33 C 310.56 278.37 304.97 280.85 299.86 282.90 C 295.96 283.11 292.04 283.11 288.14 282.90 C 283.02 280.85 277.44 278.37 274.62 273.33 C 273.48 271.37 271.56 269.42 272.05 266.98 C 272.30 265.91 272.08 264.95 271.38 264.10 C 270.65 262.18 270.76 259.81 271.42 257.87 C 272.07 256.73 272.34 255.41 272.06 254.11 C 271.53 251.64 273.43 249.63 274.60 247.65 C 277.47 242.63 283.02 239.97 288.27 238.15 Z" />
</g>
<g id="#9bb67cff">
<path fill="#9bb67c" opacity="1.00" d=" M 452.32 241.96 C 452.45 242.50 452.71 243.57 452.84 244.11 L 452.02 243.78 C 452.09 243.33 452.24 242.42 452.32 241.96 Z" />
</g>
<g id="#b7cd9bff">
<path fill="#b7cd9b" opacity="1.00" d=" M 459.02 242.83 L 459.88 243.11 C 459.86 243.57 459.80 244.50 459.77 244.97 C 459.59 244.43 459.21 243.37 459.02 242.83 Z" />
</g>
<g id="#7a7b757f">
<path fill="#7a7b75" opacity="0.50" d=" M 101.96 248.75 C 100.11 248.80 100.16 244.27 102.00 244.35 C 102.10 245.82 102.07 247.29 101.96 248.75 Z" />
</g>
<g id="#a9be91ff">
<path fill="#a9be91" opacity="1.00" d=" M 453.22 246.09 C 453.41 246.61 453.78 247.64 453.96 248.16 L 453.10 247.90 C 453.13 247.45 453.19 246.54 453.22 246.09 Z" />
</g>
<g id="#92a778d5">
<path fill="#92a778" opacity="0.84" d=" M 459.88 246.04 C 461.46 246.63 461.73 247.63 460.69 249.04 C 459.97 248.16 459.70 247.15 459.88 246.04 Z" />
</g>
<g id="#92a87ce4">
<path fill="#92a87c" opacity="0.89" d=" M 454.33 249.01 C 455.00 249.91 455.25 250.91 455.07 252.02 C 453.49 251.41 453.24 250.41 454.33 249.01 Z" />
</g>
<g id="#bad09ffe">
<path fill="#bad09f" opacity="1.00" d=" M 461.06 249.90 L 461.91 250.18 C 461.87 250.65 461.80 251.57 461.76 252.03 C 461.59 251.50 461.24 250.43 461.06 249.90 Z" />
</g>
<g id="#cde1a7ff">
<path fill="#cde1a7" opacity="1.00" d=" M 102.39 253.10 C 103.08 254.28 103.26 255.66 102.97 256.99 C 101.26 257.01 101.33 253.94 102.39 253.10 Z" />
</g>
<g id="#95a781d9">
<path fill="#95a781" opacity="0.85" d=" M 455.31 252.94 C 456.01 253.82 456.28 254.83 456.13 255.95 C 454.54 255.36 454.26 254.36 455.31 252.94 Z" />
</g>
<g id="#9db17cdf">
<path fill="#9db17c" opacity="0.87" d=" M 461.83 253.07 C 463.55 253.12 463.78 256.08 462.64 257.01 C 461.97 255.80 461.71 254.44 461.83 253.07 Z" />
</g>
<g id="#bcd596f1">
<path fill="#bcd596" opacity="0.95" d=" M 271.42 257.87 C 270.26 257.07 270.33 253.98 272.06 254.11 C 272.34 255.41 272.07 256.73 271.42 257.87 Z" />
</g>
<g id="#c8dca9f3">
<path fill="#c8dca9" opacity="0.95" d=" M 315.95 254.03 C 317.52 254.56 317.75 255.52 316.63 256.91 C 315.92 256.05 315.69 255.09 315.95 254.03 Z" />
<path fill="#c8dca9" opacity="0.95" d=" M 271.38 264.10 C 272.08 264.95 272.30 265.91 272.05 266.98 C 270.47 266.44 270.25 265.48 271.38 264.10 Z" />
<path fill="#c8dca9" opacity="0.95" d=" M 315.95 266.98 C 315.69 265.91 315.91 264.95 316.62 264.10 C 317.74 265.48 317.52 266.44 315.95 266.98 Z" />
</g>
<g id="#a1b38de0">
<path fill="#a1b38d" opacity="0.88" d=" M 456.32 256.92 C 457.00 257.83 457.27 258.85 457.12 259.99 C 455.54 259.37 455.27 258.34 456.32 256.92 Z" />
</g>
<g id="#b2cc8fff">
<path fill="#b2cc8f" opacity="1.00" d=" M 462.95 257.83 C 464.51 258.47 464.73 259.49 463.63 260.90 C 462.98 259.97 462.76 258.94 462.95 257.83 Z" />
</g>
<g id="#cfe0b1fc">
<path fill="#cfe0b1" opacity="1.00" d=" M 103.36 260.08 C 104.05 260.94 104.28 261.92 104.03 263.00 C 102.47 262.45 102.25 261.47 103.36 260.08 Z" />
</g>
<g id="#9cb285e8">
<path fill="#9cb285" opacity="0.91" d=" M 457.39 260.90 C 457.99 262.15 458.24 263.53 458.08 264.91 C 456.33 264.84 456.27 261.82 457.39 260.90 Z" />
</g>
<g id="#a7c381ff">
<path fill="#a7c381" opacity="1.00" d=" M 464.01 262.96 C 465.73 262.97 465.69 266.03 464.63 266.92 C 463.98 265.70 463.77 264.31 464.01 262.96 Z" />
</g>
<g id="#bad9c7e7">
<path fill="#bad9c7" opacity="0.91" d=" M 249.23 266.13 C 249.68 266.14 250.57 266.15 251.02 266.16 C 250.52 266.37 249.54 266.79 249.05 267.00 L 249.23 266.13 Z" />
<path fill="#bad9c7" opacity="0.91" d=" M 332.23 266.12 C 332.68 266.13 333.57 266.16 334.02 266.17 C 333.52 266.37 332.54 266.79 332.04 266.99 L 332.23 266.12 Z" />
</g>
<g id="#91c641ff">
<path fill="#91c641" opacity="1.00" d=" M 251.02 266.16 C 251.76 266.16 253.24 266.16 253.98 266.16 C 254.48 266.37 255.46 266.79 255.95 266.99 C 261.48 266.99 266.26 272.93 266.02 278.31 C 265.90 279.47 265.91 280.63 266.06 281.79 C 266.58 287.68 261.15 292.49 255.88 293.97 C 252.90 293.96 249.64 294.61 246.90 293.11 C 241.42 290.97 238.04 284.99 238.33 279.24 C 238.96 273.62 242.89 267.14 249.05 267.00 C 249.54 266.79 250.52 266.37 251.02 266.16 Z" />
<path fill="#91c641" opacity="1.00" d=" M 334.02 266.17 C 334.76 266.16 336.24 266.16 336.99 266.16 C 337.48 266.37 338.46 266.79 338.95 267.00 C 342.74 266.92 346.17 269.97 347.76 273.27 C 351.19 278.85 349.75 286.65 344.78 290.82 C 341.20 294.25 335.96 294.58 331.32 293.79 C 326.44 291.95 321.39 287.45 321.94 281.80 C 322.08 280.63 322.09 279.47 321.98 278.31 C 321.73 272.93 326.51 267.00 332.04 266.99 C 332.54 266.79 333.52 266.37 334.02 266.17 Z" />
<path fill="#91c641" opacity="1.00" d=" M 231.67 308.42 C 233.63 306.54 236.13 304.87 238.96 304.98 C 246.64 305.01 254.32 304.97 262.00 305.04 C 260.38 311.84 260.27 319.55 264.49 325.49 C 266.98 329.76 271.85 331.54 276.34 332.90 C 263.90 333.02 251.43 333.17 239.00 332.83 C 238.51 332.63 237.54 332.21 237.05 332.00 C 234.61 332.38 232.78 330.34 231.19 328.82 C 229.23 326.99 227.42 324.56 227.99 321.72 C 228.12 319.88 228.10 318.03 227.95 316.20 C 227.35 313.18 229.49 310.74 231.38 308.69 C 231.46 308.62 231.60 308.49 231.67 308.42 Z" />
<path fill="#91c641" opacity="1.00" d=" M 326.00 305.04 C 333.35 304.95 340.70 305.03 348.05 304.97 C 351.72 304.73 354.96 307.10 357.31 309.70 C 359.09 311.43 360.44 313.79 359.96 316.36 C 359.85 317.86 359.91 319.37 360.10 320.87 C 360.58 327.05 354.64 331.96 348.98 332.98 C 336.54 332.98 324.09 333.11 311.66 332.90 C 316.15 331.55 321.02 329.76 323.52 325.49 C 327.72 319.55 327.63 311.84 326.00 305.04 Z" />
</g>
<g id="#bad9c6e7">
<path fill="#bad9c6" opacity="0.91" d=" M 253.98 266.16 C 254.43 266.15 255.32 266.13 255.77 266.12 L 255.95 266.99 C 255.46 266.79 254.48 266.37 253.98 266.16 Z" />
</g>
<g id="#bbd9c7e7">
<path fill="#bbd9c7" opacity="0.91" d=" M 336.99 266.16 C 337.43 266.15 338.33 266.14 338.77 266.13 L 338.95 267.00 C 338.46 266.79 337.48 266.37 336.99 266.16 Z" />
</g>
<g id="#a6b993ed">
<path fill="#a6b993" opacity="0.93" d=" M 458.41 266.99 C 459.01 268.16 459.26 269.48 459.11 270.81 C 457.33 270.97 457.23 267.81 458.41 266.99 Z" />
</g>
<g id="#b2cb94ff">
<path fill="#b2cb94" opacity="1.00" d=" M 465.01 268.88 C 466.96 269.39 466.35 273.41 465.63 274.99 C 464.88 273.03 464.81 270.93 465.01 268.88 Z" />
</g>
<g id="#a7c18dfa">
<path fill="#a7c18d" opacity="0.98" d=" M 459.18 272.51 C 459.67 275.64 460.04 278.80 460.03 281.99 L 459.12 282.76 C 458.90 279.35 458.89 275.92 459.18 272.51 Z" />
</g>
<g id="#98ada3b6">
<path fill="#98ada3" opacity="0.71" d=" M 266.02 278.31 C 267.79 277.94 267.84 282.13 266.06 281.79 C 265.91 280.63 265.90 279.47 266.02 278.31 Z" />
<path fill="#98ada3" opacity="0.71" d=" M 321.94 281.80 C 320.15 282.13 320.20 277.94 321.98 278.31 C 322.09 279.47 322.08 280.63 321.94 281.80 Z" />
</g>
<g id="#9fbd6eff">
<path fill="#9fbd6e" opacity="1.00" d=" M 466.82 292.96 C 466.19 288.17 465.73 283.31 466.34 278.48 C 467.79 283.03 466.78 288.18 466.82 292.96 Z" />
</g>
<g id="#b5c89df9">
<path fill="#b5c89d" opacity="0.98" d=" M 121.99 289.97 L 122.78 290.33 C 123.02 295.39 123.08 300.47 122.87 305.54 C 121.61 304.37 122.10 302.52 121.97 301.02 C 122.00 297.33 122.00 293.65 121.99 289.97 Z" />
</g>
<g id="#d1e7adff">
<path fill="#d1e7ad" opacity="1.00" d=" M 131.04 293.11 C 133.84 293.04 136.63 293.31 139.41 293.62 C 136.43 294.34 133.31 293.98 130.28 293.89 L 131.04 293.11 Z" />
</g>
<g id="#8fd68dfe">
<path fill="#8fd68d" opacity="1.00" d=" M 271.97 295.06 C 272.50 293.47 273.47 293.25 274.87 294.40 C 273.99 295.07 273.02 295.29 271.97 295.06 Z" />
</g>
<g id="#4f8f07ff">
<path fill="#4f8f07" opacity="1.00" d=" M 274.87 294.40 C 282.48 293.44 290.30 294.27 298.00 294.00 C 303.03 294.23 308.19 293.47 313.14 294.40 C 314.00 295.07 314.97 295.29 316.04 295.06 C 316.51 295.01 317.45 294.92 317.92 294.87 L 318.16 295.92 C 318.57 296.21 319.39 296.78 319.80 297.07 C 321.55 296.97 322.42 299.12 323.53 300.21 C 323.59 300.31 323.72 300.50 323.78 300.59 C 324.62 302.01 325.45 303.47 326.00 305.04 C 327.63 311.84 327.72 319.55 323.52 325.49 C 321.02 329.76 316.15 331.55 311.66 332.90 C 299.89 333.07 288.10 333.08 276.34 332.90 C 271.85 331.54 266.98 329.76 264.49 325.49 C 260.27 319.55 260.38 311.84 262.00 305.04 C 262.55 303.46 263.37 302.01 264.22 300.59 C 264.28 300.49 264.41 300.30 264.47 300.21 C 265.57 299.12 266.45 296.97 268.20 297.07 C 268.61 296.78 269.43 296.21 269.84 295.92 L 270.08 294.87 C 270.55 294.92 271.50 295.01 271.97 295.06 C 273.02 295.29 273.99 295.07 274.87 294.40 Z" />
</g>
<g id="#8dd58cfe">
<path fill="#8dd58c" opacity="1.00" d=" M 313.14 294.40 C 314.52 293.25 315.49 293.47 316.04 295.06 C 314.97 295.29 314.00 295.07 313.14 294.40 Z" />
</g>
<g id="#b2c198e0">
<path fill="#b2c198" opacity="0.88" d=" M 129.06 295.74 C 130.71 300.11 129.91 304.91 129.87 309.46 C 128.87 304.95 128.85 300.33 129.06 295.74 Z" />
</g>
<g id="#5fa885c5">
<path fill="#5fa885" opacity="0.77" d=" M 268.18 296.23 C 268.60 296.15 269.43 296.00 269.84 295.92 C 269.43 296.21 268.61 296.78 268.20 297.07 L 268.18 296.23 Z" />
<path fill="#5fa885" opacity="0.77" d=" M 318.16 295.92 C 318.57 296.00 319.40 296.15 319.82 296.23 L 319.80 297.07 C 319.39 296.78 318.57 296.21 318.16 295.92 Z" />
</g>
<g id="#afc4bacd">
<path fill="#afc4ba" opacity="0.80" d=" M 264.22 300.59 C 264.28 300.49 264.41 300.30 264.47 300.21 C 264.41 300.30 264.28 300.49 264.22 300.59 Z" />
<path fill="#afc4ba" opacity="0.80" d=" M 323.53 300.21 C 323.59 300.31 323.72 300.50 323.78 300.59 C 323.72 300.50 323.59 300.31 323.53 300.21 Z" />
</g>
<g id="#56645d6a">
<path fill="#56645d" opacity="0.42" d=" M 231.38 308.69 C 231.46 308.62 231.60 308.49 231.67 308.42 C 231.60 308.49 231.46 308.62 231.38 308.69 Z" />
</g>
<g id="#a1b885f7">
<path fill="#a1b885" opacity="0.97" d=" M 123.39 309.07 C 124.05 310.95 124.26 312.94 124.00 314.92 C 122.03 314.53 122.52 310.52 123.39 309.07 Z" />
</g>
<g id="#b5c996f4">
<path fill="#b5c996" opacity="0.96" d=" M 129.96 312.14 C 131.99 312.51 131.40 316.58 130.61 318.08 C 129.97 316.17 129.72 314.15 129.96 312.14 Z" />
</g>
<g id="#adc3b9cd">
<path fill="#adc3b9" opacity="0.80" d=" M 227.99 321.72 C 226.23 321.45 226.18 316.48 227.95 316.20 C 228.10 318.03 228.12 319.88 227.99 321.72 Z" />
</g>
<g id="#a3b9aec3">
<path fill="#a3b9ae" opacity="0.76" d=" M 359.96 316.36 C 361.72 316.30 361.86 320.86 360.10 320.87 C 359.91 319.37 359.85 317.86 359.96 316.36 Z" />
</g>
<g id="#a8bc8cf5">
<path fill="#a8bc8c" opacity="0.96" d=" M 124.40 318.08 C 125.04 319.28 125.24 320.64 125.05 321.99 C 123.31 322.00 123.27 318.93 124.40 318.08 Z" />
</g>
<g id="#b1c894f6">
<path fill="#b1c894" opacity="0.96" d=" M 130.80 318.93 C 132.85 319.17 132.53 322.73 131.63 324.06 C 131.07 322.40 130.80 320.67 130.80 318.93 Z" />
</g>
<g id="#c9e1a2ff">
<path fill="#c9e1a2" opacity="1.00" d=" M 484.06 320.99 C 485.56 321.60 485.76 322.61 484.66 324.01 C 483.97 323.09 483.78 322.08 484.06 320.99 Z" />
</g>
<g id="#acbf92fd">
<path fill="#acbf92" opacity="1.00" d=" M 125.36 324.06 C 126.02 324.97 126.23 325.97 126.00 327.07 C 124.45 326.45 124.24 325.45 125.36 324.06 Z" />
</g>
<g id="#aec38ff5">
<path fill="#aec38f" opacity="0.96" d=" M 131.84 324.93 C 133.64 324.98 133.70 328.04 132.62 329.04 C 132.05 327.74 131.79 326.34 131.84 324.93 Z" />
</g>
<g id="#cee3abfb">
<path fill="#cee3ab" opacity="1.00" d=" M 484.88 324.94 C 486.82 325.15 486.52 328.65 485.65 329.90 C 484.93 328.34 484.74 326.63 484.88 324.94 Z" />
</g>
<g id="#a0af8aea">
<path fill="#a0af8a" opacity="0.92" d=" M 126.36 329.05 C 127.02 329.96 127.26 330.96 127.06 332.08 C 125.49 331.44 125.26 330.43 126.36 329.05 Z" />
</g>
<g id="#97af7fe0">
<path fill="#97af7f" opacity="0.88" d=" M 132.88 329.96 C 134.46 330.57 134.73 331.59 133.68 333.01 C 132.99 332.10 132.73 331.08 132.88 329.96 Z" />
</g>
<g id="#bbd9c8e7">
<path fill="#bbd9c8" opacity="0.91" d=" M 237.05 332.00 C 237.54 332.21 238.51 332.63 239.00 332.83 C 238.56 332.84 237.67 332.86 237.22 332.87 L 237.05 332.00 Z" />
</g>
<g id="#ced6bede">
<path fill="#ced6be" opacity="0.87" d=" M 486.16 331.55 C 487.14 335.35 487.87 339.94 486.09 343.54 C 485.97 339.54 486.02 335.54 486.16 331.55 Z" />
</g>
<g id="#a8b991f8">
<path fill="#a8b991" opacity="0.97" d=" M 127.35 333.01 C 127.99 333.94 128.22 334.97 128.03 336.10 C 126.47 335.44 126.25 334.41 127.35 333.01 Z" />
</g>
<g id="#adc294f1">
<path fill="#adc294" opacity="0.95" d=" M 133.95 333.92 C 135.51 334.54 135.74 335.55 134.65 336.94 C 133.98 336.03 133.75 335.02 133.95 333.92 Z" />
</g>
<g id="#aac090ff">
<path fill="#aac090" opacity="1.00" d=" M 128.36 337.01 C 129.00 337.95 129.21 338.99 129.01 340.11 C 127.47 339.45 127.25 338.41 128.36 337.01 Z" />
</g>
<g id="#a8c585ff">
<path fill="#a8c585" opacity="1.00" d=" M 135.05 338.92 L 135.91 339.15 C 135.89 339.61 135.84 340.52 135.81 340.98 C 135.62 340.47 135.24 339.44 135.05 338.92 Z" />
</g>
<g id="#879c6dd9">
<path fill="#879c6d" opacity="0.85" d=" M 129.31 340.98 C 130.00 341.86 130.27 342.85 130.11 343.96 C 128.51 343.38 128.24 342.39 129.31 340.98 Z" />
</g>
<g id="#b2cb92ff">
<path fill="#b2cb92" opacity="1.00" d=" M 136.03 341.89 L 136.90 342.11 C 136.87 342.57 136.82 343.48 136.80 343.94 C 136.61 343.42 136.22 342.40 136.03 341.89 Z" />
</g>
<g id="#abb999ec">
<path fill="#abb999" opacity="0.93" d=" M 130.20 344.95 C 130.39 345.47 130.77 346.53 130.96 347.05 L 130.10 346.79 C 130.13 346.33 130.18 345.41 130.20 344.95 Z" />
</g>
<g id="#b4cd99ff">
<path fill="#b4cd99" opacity="1.00" d=" M 137.06 344.81 L 137.92 345.12 L 138.20 346.17 L 137.62 346.87 C 137.48 346.35 137.20 345.33 137.06 344.81 Z" />
</g>
<g id="#c9e1a3fb">
<path fill="#c9e1a3" opacity="1.00" d=" M 484.87 351.08 C 484.75 349.06 484.91 347.02 485.66 345.13 C 486.36 346.70 486.98 350.63 484.87 351.08 Z" />
</g>
<g id="#95a385d1">
<path fill="#95a385" opacity="0.82" d=" M 131.23 348.02 C 131.42 348.55 131.81 349.62 132.00 350.16 C 131.69 349.81 131.07 349.13 130.76 348.79 L 131.23 348.02 Z" />
</g>
<g id="#8eaf64ee">
<path fill="#8eaf64" opacity="0.93" d=" M 137.94 347.61 C 139.63 349.84 141.06 352.72 140.71 355.58 C 139.65 352.97 138.71 350.31 137.94 347.61 Z" />
</g>
<g id="#b0c195ff">
<path fill="#b0c195" opacity="1.00" d=" M 132.17 351.13 C 132.22 351.31 132.33 351.68 132.38 351.87 C 132.33 351.68 132.22 351.31 132.17 351.13 Z" />
</g>
<g id="#c4dfa0f9">
<path fill="#c4dfa0" opacity="0.98" d=" M 483.98 356.02 C 483.75 354.63 484.00 353.23 484.61 351.97 C 485.63 352.90 485.72 355.97 483.98 356.02 Z" />
</g>
<g id="#c3d3b1ff">
<path fill="#c3d3b1" opacity="1.00" d=" M 133.20 354.24 C 133.29 354.42 133.48 354.79 133.57 354.97 C 133.48 354.79 133.29 354.42 133.20 354.24 Z" />
</g>
<g id="#b8c99bff">
<path fill="#b8c99b" opacity="1.00" d=" M 134.14 355.86 C 134.34 356.39 134.74 357.46 134.94 358.00 L 134.09 357.75 C 134.10 357.28 134.13 356.33 134.14 355.86 Z" />
</g>
<g id="#8fad6ae6">
<path fill="#8fad6a" opacity="0.90" d=" M 140.83 356.20 C 142.49 355.57 143.68 359.04 142.62 360.12 C 141.51 359.10 140.93 357.68 140.83 356.20 Z" />
</g>
<g id="#c7e2a0ff">
<path fill="#c7e2a0" opacity="1.00" d=" M 482.96 361.10 C 482.75 359.99 482.98 358.99 483.66 358.10 C 484.75 359.50 484.52 360.50 482.96 361.10 Z" />
</g>
<g id="#919e7fcb">
<path fill="#919e7f" opacity="0.80" d=" M 135.15 358.89 C 135.36 359.39 135.79 360.37 136.00 360.86 L 135.13 360.70 C 135.13 360.25 135.14 359.35 135.15 358.89 Z" />
</g>
<g id="#d4e7b0ff">
<path fill="#d4e7b0" opacity="1.00" d=" M 482.03 364.03 C 482.23 363.52 482.64 362.52 482.84 362.02 C 482.85 362.47 482.89 363.38 482.90 363.84 L 482.03 364.03 Z" />
</g>
<g id="#bacf99ff">
<path fill="#bacf99" opacity="1.00" d=" M 144.73 363.44 C 144.81 363.60 144.96 363.93 145.04 364.09 C 144.96 363.93 144.81 363.60 144.73 363.44 Z" />
</g>
<g id="#cad2c3fa">
<path fill="#cad2c3" opacity="0.98" d=" M 137.33 364.58 C 137.41 364.74 137.57 365.06 137.65 365.22 C 137.57 365.06 137.41 364.74 137.33 364.58 Z" />
</g>
<g id="#c7dbaaff">
<path fill="#c7dbaa" opacity="1.00" d=" M 145.49 365.03 C 145.59 365.24 145.78 365.66 145.88 365.87 C 145.78 365.66 145.59 365.24 145.49 365.03 Z" />
</g>
<g id="#bfcbafff">
<path fill="#bfcbaf" opacity="1.00" d=" M 138.14 366.16 C 138.25 366.37 138.47 366.80 138.58 367.01 C 138.47 366.80 138.25 366.37 138.14 366.16 Z" />
</g>
<g id="#c8daa5ff">
<path fill="#c8daa5" opacity="1.00" d=" M 146.34 366.91 C 146.41 367.12 146.57 367.53 146.64 367.74 C 146.57 367.53 146.41 367.12 146.34 366.91 Z" />
</g>
<g id="#cdd5c5fd">
<path fill="#cdd5c5" opacity="1.00" d=" M 139.12 368.07 C 139.23 368.29 139.45 368.72 139.55 368.94 C 139.45 368.72 139.23 368.29 139.12 368.07 Z" />
</g>
<g id="#a2bf7cfa">
<path fill="#a2bf7c" opacity="0.98" d=" M 146.85 368.79 C 148.34 368.85 149.42 371.26 148.77 372.53 C 147.59 371.63 146.91 370.26 146.85 368.79 Z" />
</g>
<g id="#c4d2aeff">
<path fill="#c4d2ae" opacity="1.00" d=" M 139.99 369.88 C 140.07 370.04 140.22 370.36 140.29 370.53 C 140.22 370.36 140.07 370.04 139.99 369.88 Z" />
</g>
<g id="#ccdbb2ff">
<path fill="#ccdbb2" opacity="1.00" d=" M 149.28 373.05 C 149.37 373.16 149.55 373.37 149.64 373.47 C 149.55 373.37 149.37 373.16 149.28 373.05 Z" />
</g>
<g id="#c0cba6ff">
<path fill="#c0cba6" opacity="1.00" d=" M 142.32 374.65 C 142.40 374.81 142.57 375.11 142.65 375.27 C 142.57 375.11 142.40 374.81 142.32 374.65 Z" />
</g>
<g id="#c6d0b3ff">
<path fill="#c6d0b3" opacity="1.00" d=" M 143.15 376.18 C 143.26 376.38 143.47 376.77 143.58 376.97 C 143.47 376.77 143.26 376.38 143.15 376.18 Z" />
</g>
<g id="#d3e5b5fa">
<path fill="#d3e5b5" opacity="0.98" d=" M 389.09 376.17 L 389.96 375.94 C 389.79 376.45 389.45 377.45 389.29 377.96 L 388.75 377.21 L 389.09 376.17 Z" />
</g>
<g id="#adb1aac9">
<path fill="#adb1aa" opacity="0.79" d=" M 144.06 377.84 C 144.16 378.01 144.35 378.34 144.44 378.51 C 144.35 378.34 144.16 378.01 144.06 377.84 Z" />
</g>
<g id="#c6d8a3ff">
<path fill="#c6d8a3" opacity="1.00" d=" M 152.57 378.13 C 152.63 378.24 152.76 378.46 152.82 378.56 C 152.76 378.46 152.63 378.24 152.57 378.13 Z" />
</g>
<g id="#c8d6b9ff">
<path fill="#c8d6b9" opacity="1.00" d=" M 146.27 381.58 C 146.36 381.72 146.53 382.02 146.62 382.17 C 146.53 382.02 146.36 381.72 146.27 381.58 Z" />
</g>
<g id="#c7d2c0ff">
<path fill="#c7d2c0" opacity="1.00" d=" M 147.05 382.92 C 147.14 383.09 147.33 383.41 147.42 383.58 C 147.33 383.41 147.14 383.09 147.05 382.92 Z" />
</g>
<g id="#dae7beff">
<path fill="#dae7be" opacity="1.00" d=" M 155.56 383.16 C 155.62 383.27 155.75 383.50 155.81 383.61 C 155.75 383.50 155.62 383.27 155.56 383.16 Z" />
</g>
<g id="#c7d2c1ff">
<path fill="#c7d2c1" opacity="1.00" d=" M 149.16 386.40 C 149.24 386.53 149.41 386.78 149.49 386.91 C 149.41 386.78 149.24 386.53 149.16 386.40 Z" />
</g>
<g id="#9dbd74f8">
<path fill="#9dbd74" opacity="0.97" d=" M 156.96 386.11 C 158.66 386.09 159.28 386.90 158.81 388.56 C 157.81 388.02 157.19 387.21 156.96 386.11 Z" />
</g>
<g id="#c0ccb7ff">
<path fill="#c0ccb7" opacity="1.00" d=" M 151.15 389.38 C 151.23 389.51 151.40 389.76 151.49 389.89 C 151.40 389.76 151.23 389.51 151.15 389.38 Z" />
</g>
<g id="#d2dfb7fd">
<path fill="#d2dfb7" opacity="1.00" d=" M 159.37 389.04 C 159.46 389.14 159.65 389.35 159.74 389.46 C 159.65 389.35 159.46 389.14 159.37 389.04 Z" />
</g>
<g id="#bcc7acff">
<path fill="#bcc7ac" opacity="1.00" d=" M 153.18 392.40 C 153.26 392.51 153.43 392.73 153.51 392.84 C 153.43 392.73 153.26 392.51 153.18 392.40 Z" />
</g>
<g id="#98b774f1">
<path fill="#98b774" opacity="0.95" d=" M 161.92 393.10 C 163.64 393.00 164.22 393.76 163.66 395.38 C 162.67 394.92 162.09 394.16 161.92 393.10 Z" />
</g>
<g id="#85a26ded">
<path fill="#85a26d" opacity="0.93" d=" M 155.32 394.63 C 156.32 395.07 156.91 395.82 157.11 396.89 C 155.39 397.00 154.79 396.25 155.32 394.63 Z" />
</g>
<g id="#9ec07dff">
<path fill="#9ec07d" opacity="1.00" d=" M 164.98 397.05 C 166.68 397.03 167.24 397.80 166.67 399.36 C 165.64 398.92 165.08 398.15 164.98 397.05 Z" />
</g>
<g id="#d8ebb7fe">
<path fill="#d8ebb7" opacity="1.00" d=" M 380.10 400.13 L 380.98 399.93 C 380.79 400.42 380.43 401.42 380.25 401.91 L 379.73 401.15 L 380.10 400.13 Z" />
</g>
<g id="#92b365f8">
<path fill="#92b365" opacity="0.97" d=" M 170.97 403.78 C 173.07 405.26 175.01 407.05 176.21 409.36 C 174.00 407.98 172.25 406.03 170.97 403.78 Z" />
</g>
<g id="#8ba079e3">
<path fill="#8ba079" opacity="0.89" d=" M 163.29 404.77 C 164.36 405.09 164.96 405.81 165.09 406.92 C 163.44 407.08 162.84 406.37 163.29 404.77 Z" />
</g>
<g id="#dce2cbf5">
<path fill="#dce2cb" opacity="0.96" d=" M 177.43 410.27 C 177.51 410.35 177.68 410.50 177.77 410.57 C 177.68 410.50 177.51 410.35 177.43 410.27 Z" />
</g>
<g id="#8cb061f7">
<path fill="#8cb061" opacity="0.97" d=" M 178.68 411.70 C 181.25 413.34 183.40 415.58 185.21 418.03 C 182.49 416.55 180.27 414.35 178.68 411.70 Z" />
</g>
<g id="#88a56ef0">
<path fill="#88a56e" opacity="0.94" d=" M 171.41 413.62 C 172.64 414.34 173.68 415.34 174.38 416.60 C 172.97 417.69 170.30 415.01 171.41 413.62 Z" />
</g>
<g id="#5d5d5c66">
<path fill="#5d5d5c" opacity="0.40" d=" M 177.40 420.37 C 177.47 420.44 177.61 420.59 177.68 420.66 C 177.61 420.59 177.47 420.44 177.40 420.37 Z" />
</g>
<g id="#9fba7df1">
<path fill="#9fba7d" opacity="0.95" d=" M 188.69 421.33 C 190.24 420.79 190.99 421.36 190.94 423.04 C 189.82 422.95 189.07 422.38 188.69 421.33 Z" />
</g>
<g id="#79995ded">
<path fill="#79995d" opacity="0.93" d=" M 180.80 423.01 C 182.95 424.29 184.82 425.97 186.48 427.84 C 183.97 427.10 182.25 425.06 180.80 423.01 Z" />
</g>
<g id="#9bbf77ff">
<path fill="#9bbf77" opacity="1.00" d=" M 193.63 425.32 C 195.21 424.76 195.98 425.35 195.94 427.08 C 194.85 426.91 194.08 426.32 193.63 425.32 Z" />
</g>
<g id="#dde7caff">
<path fill="#dde7ca" opacity="1.00" d=" M 198.44 428.15 C 198.55 428.22 198.78 428.36 198.89 428.43 C 198.78 428.36 198.55 428.22 198.44 428.15 Z" />
</g>
<g id="#cbd6c9fd">
<path fill="#cbd6c9" opacity="1.00" d=" M 188.18 429.49 C 188.27 429.57 188.45 429.72 188.55 429.80 C 188.45 429.72 188.27 429.57 188.18 429.49 Z" />
</g>
<g id="#a2bd7cfc">
<path fill="#a2bd7c" opacity="1.00" d=" M 200.58 430.30 C 202.16 429.74 202.94 430.32 202.93 432.04 C 201.83 431.89 201.05 431.31 200.58 430.30 Z" />
</g>
<g id="#cad2c1f7">
<path fill="#cad2c1" opacity="0.97" d=" M 193.21 433.46 C 193.32 433.54 193.54 433.71 193.65 433.79 C 193.54 433.71 193.32 433.54 193.21 433.46 Z" />
</g>
<g id="#94b270f5">
<path fill="#94b270" opacity="0.96" d=" M 204.70 433.40 C 205.71 432.40 208.42 433.75 207.85 435.21 C 206.56 435.13 205.37 434.52 204.70 433.40 Z" />
</g>
<g id="#c9d2bcff">
<path fill="#c9d2bc" opacity="1.00" d=" M 196.13 435.48 C 196.26 435.56 196.52 435.74 196.64 435.82 C 196.52 435.74 196.26 435.56 196.13 435.48 Z" />
</g>
<g id="#c4d5abff">
<path fill="#c4d5ab" opacity="1.00" d=" M 210.60 436.30 C 210.74 436.37 211.03 436.53 211.17 436.60 C 211.03 436.53 210.74 436.37 210.60 436.30 Z" />
</g>
<g id="#bdcaabff">
<path fill="#bdcaab" opacity="1.00" d=" M 199.11 437.48 C 199.23 437.56 199.45 437.71 199.56 437.79 C 199.45 437.71 199.23 437.56 199.11 437.48 Z" />
</g>
<g id="#d5dec5f5">
<path fill="#d5dec5" opacity="0.96" d=" M 211.92 437.03 C 212.09 437.13 212.41 437.31 212.57 437.41 C 212.41 437.31 212.09 437.13 211.92 437.03 Z" />
</g>
<g id="#c7d6abff">
<path fill="#c7d6ab" opacity="1.00" d=" M 215.56 439.25 C 215.72 439.34 216.03 439.52 216.18 439.61 C 216.03 439.52 215.72 439.34 215.56 439.25 Z" />
</g>
<g id="#ccdbb5ff">
<path fill="#ccdbb5" opacity="1.00" d=" M 216.95 440.01 C 217.10 440.08 217.41 440.23 217.56 440.30 C 217.41 440.23 217.10 440.08 216.95 440.01 Z" />
</g>
<g id="#85a268eb">
<path fill="#85a268" opacity="0.92" d=" M 205.19 440.91 C 206.42 440.93 207.82 441.30 208.33 442.56 C 207.37 443.63 204.79 442.31 205.19 440.91 Z" />
</g>
<g id="#bfd1a3ff">
<path fill="#bfd1a3" opacity="1.00" d=" M 221.61 442.33 C 221.76 442.40 222.05 442.55 222.19 442.63 C 222.05 442.55 221.76 442.40 221.61 442.33 Z" />
</g>
<g id="#b8cd94ff">
<path fill="#b8cd94" opacity="1.00" d=" M 222.96 443.01 C 223.10 443.08 223.40 443.22 223.55 443.29 C 223.40 443.22 223.10 443.08 222.96 443.01 Z" />
</g>
<g id="#8ba671f3">
<path fill="#8ba671" opacity="0.95" d=" M 210.13 443.95 C 211.60 443.64 212.72 444.82 213.61 445.80 C 212.44 446.45 209.93 445.42 210.13 443.95 Z" />
</g>
<g id="#b7c6a0ff">
<path fill="#b7c6a0" opacity="1.00" d=" M 214.32 446.45 C 214.50 446.57 214.86 446.80 215.03 446.92 C 214.86 446.80 214.50 446.57 214.32 446.45 Z" />
</g>
<g id="#9fb187e0">
<path fill="#9fb187" opacity="0.88" d=" M 229.09 446.25 L 229.85 445.75 L 230.86 446.15 L 231.07 447.04 C 230.57 446.84 229.59 446.45 229.09 446.25 Z" />
</g>
<g id="#cad4bfff">
<path fill="#cad4bf" opacity="1.00" d=" M 216.01 447.45 C 216.23 447.56 216.66 447.79 216.88 447.90 C 216.66 447.79 216.23 447.56 216.01 447.45 Z" />
</g>
<g id="#86a062e3">
<path fill="#86a062" opacity="0.89" d=" M 231.68 447.41 C 232.89 446.34 236.30 447.45 235.95 449.24 C 234.39 448.99 232.93 448.36 231.68 447.41 Z" />
</g>
<g id="#cad3bffb">
<path fill="#cad3bf" opacity="1.00" d=" M 217.98 448.44 C 218.21 448.55 218.66 448.77 218.89 448.88 C 218.66 448.77 218.21 448.55 217.98 448.44 Z" />
</g>
<g id="#c4cfb2ff">
<path fill="#c4cfb2" opacity="1.00" d=" M 219.99 449.43 C 220.21 449.55 220.66 449.77 220.89 449.89 C 220.66 449.77 220.21 449.55 219.99 449.43 Z" />
</g>
<g id="#8ca968ef">
<path fill="#8ca968" opacity="0.94" d=" M 236.61 449.45 C 237.83 448.29 241.16 449.40 241.07 451.13 C 239.45 450.98 237.96 450.31 236.61 449.45 Z" />
</g>
<g id="#c4cfb3ff">
<path fill="#c4cfb3" opacity="1.00" d=" M 221.98 450.44 C 222.19 450.55 222.63 450.77 222.85 450.88 C 222.63 450.77 222.19 450.55 221.98 450.44 Z" />
</g>
<g id="#cdd5c0fd">
<path fill="#cdd5c0" opacity="1.00" d=" M 223.89 451.37 C 224.10 451.46 224.50 451.64 224.71 451.73 C 224.50 451.64 224.10 451.46 223.89 451.37 Z" />
</g>
<g id="#a3bd7eff">
<path fill="#a3bd7e" opacity="1.00" d=" M 241.99 451.33 C 242.44 451.26 243.35 451.13 243.81 451.07 L 244.12 451.91 C 243.59 451.76 242.52 451.47 241.99 451.33 Z" />
</g>
<g id="#9dad82e8">
<path fill="#9dad82" opacity="0.91" d=" M 225.76 452.05 C 226.31 452.20 227.41 452.51 227.96 452.66 C 227.50 452.72 226.58 452.83 226.12 452.89 L 225.76 452.05 Z" />
</g>
<g id="#aac289ff">
<path fill="#aac289" opacity="1.00" d=" M 244.99 452.22 C 245.44 452.17 246.34 452.08 246.79 452.03 L 247.04 452.88 C 246.53 452.71 245.50 452.39 244.99 452.22 Z" />
</g>
<g id="#cfe5b0ff">
<path fill="#cfe5b0" opacity="1.00" d=" M 374.03 452.84 C 374.53 452.64 375.53 452.26 376.04 452.06 L 375.83 452.92 C 375.38 452.90 374.48 452.86 374.03 452.84 Z" />
</g>
<g id="#8ca469e8">
<path fill="#8ca469" opacity="0.91" d=" M 228.91 452.85 C 230.53 452.94 232.04 453.59 233.30 454.62 C 232.04 455.59 228.81 454.55 228.91 452.85 Z" />
</g>
<g id="#849b62da">
<path fill="#849b62" opacity="0.85" d=" M 248.52 453.07 C 251.18 453.17 254.05 453.57 256.28 455.15 C 253.63 454.68 251.03 454.00 248.52 453.07 Z" />
</g>
<g id="#cbe1aaf9">
<path fill="#cbe1aa" opacity="0.98" d=" M 367.97 453.62 C 369.21 452.98 370.60 452.74 371.98 452.96 C 371.98 454.71 368.90 454.63 367.97 453.62 Z" />
</g>
<g id="#d0e6aefc">
<path fill="#d0e6ae" opacity="1.00" d=" M 364.13 454.65 C 365.02 453.97 366.02 453.72 367.13 453.91 C 366.53 455.48 365.52 455.73 364.13 454.65 Z" />
</g>
<g id="#a9bd82ff">
<path fill="#a9bd82" opacity="1.00" d=" M 233.94 455.03 C 234.46 455.19 235.49 455.53 236.01 455.69 L 235.26 456.23 L 234.20 455.90 L 233.94 455.03 Z" />
</g>
<g id="#96a483d0">
<path fill="#96a483" opacity="0.82" d=" M 257.07 455.41 C 258.42 454.30 259.39 454.56 259.97 456.18 C 258.89 456.36 257.92 456.10 257.07 455.41 Z" />
</g>
<g id="#c2e097ff">
<path fill="#c2e097" opacity="1.00" d=" M 357.06 455.61 C 358.25 454.93 359.64 454.74 360.99 455.08 C 360.93 456.76 357.91 456.65 357.06 455.61 Z" />
</g>
<g id="#95af6bfa">
<path fill="#95af6b" opacity="0.98" d=" M 236.91 455.88 C 238.52 455.99 240.02 456.64 241.31 457.63 C 240.05 458.69 236.79 457.55 236.91 455.88 Z" />
</g>
<g id="#acc08eff">
<path fill="#acc08e" opacity="1.00" d=" M 260.95 456.35 C 262.37 455.25 263.41 455.46 264.08 456.97 C 262.95 457.20 261.91 456.99 260.95 456.35 Z" />
</g>
<g id="#c9e59eff">
<path fill="#c9e59e" opacity="1.00" d=" M 349.07 456.66 C 350.97 455.92 353.01 455.71 355.03 455.96 C 354.62 457.99 350.61 457.33 349.07 456.66 Z" />
</g>
<g id="#a5b88bf0">
<path fill="#a5b88b" opacity="0.94" d=" M 266.04 457.39 C 266.92 456.25 269.96 456.35 269.98 458.10 C 268.62 458.24 267.25 458.02 266.04 457.39 Z" />
</g>
<g id="#dbeab5ff">
<path fill="#dbeab5" opacity="1.00" d=" M 339.04 457.64 C 341.25 456.77 343.64 456.74 345.98 457.02 C 345.27 459.03 340.86 458.21 339.04 457.64 Z" />
</g>
<g id="#bac89ffa">
<path fill="#bac89f" opacity="0.98" d=" M 241.95 458.01 C 242.46 458.21 243.48 458.61 243.99 458.80 C 243.53 458.82 242.62 458.86 242.17 458.88 L 241.95 458.01 Z" />
</g>
<g id="#a1b484ea">
<path fill="#a1b484" opacity="0.92" d=" M 272.00 458.39 C 273.42 457.49 277.40 457.05 277.72 459.10 C 275.78 459.32 273.83 459.04 272.00 458.39 Z" />
</g>
<g id="#b5c697f7">
<path fill="#b5c697" opacity="0.97" d=" M 244.96 458.97 C 246.09 458.77 247.13 459.00 248.07 459.66 C 246.64 460.73 245.60 460.50 244.96 458.97 Z" />
</g>
<g id="#9ab775ff">
<path fill="#9ab775" opacity="1.00" d=" M 280.54 459.15 C 291.18 458.87 301.85 458.94 312.49 459.13 L 311.77 459.75 C 301.37 459.67 290.87 460.80 280.54 459.15 Z" />
</g>
<g id="#97a581d4">
<path fill="#97a581" opacity="0.83" d=" M 249.05 459.85 C 250.17 459.69 251.17 459.97 252.05 460.69 C 250.62 461.72 249.62 461.44 249.05 459.85 Z" />
</g>
<g id="#aabb8ef2">
<path fill="#aabb8e" opacity="0.95" d=" M 252.93 460.96 C 254.05 460.76 255.08 461.00 256.01 461.67 C 254.59 462.74 253.56 462.50 252.93 460.96 Z" />
</g>
<g id="#cddfbbff">
<path fill="#cddfbb" opacity="1.00" d=" M 312.97 461.13 C 314.51 461.59 314.55 462.17 313.10 462.88 C 313.07 462.44 313.00 461.57 312.97 461.13 Z" />
</g>
<g id="#a8ba91e7">
<path fill="#a8ba91" opacity="0.91" d=" M 256.95 461.92 C 258.07 461.71 259.08 461.96 259.98 462.66 C 258.58 463.72 257.57 463.47 256.95 461.92 Z" />
</g>
<g id="#a5b980f5">
<path fill="#a5b980" opacity="0.96" d=" M 262.01 462.98 C 263.41 462.78 264.81 463.04 266.10 463.59 C 265.17 464.66 262.08 464.74 262.01 462.98 Z" />
</g>
<g id="#a3b380e6">
<path fill="#a3b380" opacity="0.90" d=" M 267.06 463.74 C 268.70 463.71 270.34 463.98 271.88 464.61 C 270.69 465.72 267.25 465.68 267.06 463.74 Z" />
</g>
<g id="#8bae65fa">
<path fill="#8bae65" opacity="0.98" d=" M 304.66 465.94 C 307.60 465.39 310.49 464.66 313.38 463.89 C 312.98 464.43 312.19 465.50 311.79 466.03 C 309.41 466.01 307.03 466.01 304.66 465.94 Z" />
</g>
<g id="#aabb86f0">
<path fill="#aabb86" opacity="0.94" d=" M 273.53 464.99 C 277.17 464.92 280.81 465.15 284.39 465.83 C 280.81 465.79 276.78 466.93 273.53 464.99 Z" />
</g>
</svg>
