<svg xmlns="http://www.w3.org/2000/svg" viewBox="0 0 24 24">
  <circle cx="12" cy="16" r="1" fill="#00B761" />
  <circle cx="12" cy="10" r="1" fill="#00B761" />
  <circle cx="14" cy="13" r="1" fill="#00B761" />
  <circle cx="10" cy="13" r="1" fill="#00B761" />
  <polygon points="14.223,12.026 13,11.5 13,10 11.234,9.353 9.208,12.387 9.777,13.973 11,14.5 11,16 12.767,16.646 14.792,13.612" fill="#00B761" />
  <path d="M18.843,7.354l-0.649,0.374L15.464,3C14.741,1.748,13.446,1,12,1S9.259,1.748,8.536,2.999l-0.434,0.75C7.826,4.228,7.99,4.839,8.468,5.116c0.479,0.274,1.09,0.112,1.367-0.365L10.269,4C10.63,3.374,11.277,3,12,3s1.37,0.374,1.731,1l2.73,4.729l-0.705,0.407c-0.514,0.297-0.514,1.039,0,1.336l3.086,1.782C19.357,12.552,20,12.18,20,11.586V8.023C20,7.429,19.357,7.058,18.843,7.354z" opacity=".35" fill="#00B761" />
  <path d="M22.393,15l-0.722-1.25c-0.277-0.479-0.89-0.643-1.366-0.366c-0.479,0.276-0.643,0.888-0.366,1.366L20.66,16c0.361,0.626,0.361,1.374,0,2s-1.01,1-1.732,1H10v-0.911c0-0.595-0.644-0.966-1.159-0.669l-3.086,1.786c-0.514,0.297-0.514,1.04,0,1.337l3.086,1.786C9.356,22.627,10,22.256,10,21.661V21h8.928c1.446,0,2.741-0.748,3.464-2C23.115,17.748,23.115,16.253,22.393,15z" opacity=".35" fill="#00B761" />
  <path d="M7.093,5.995L4.006,7.777c-0.514,0.297-0.514,1.039,0,1.336l0.75,0.433L1.607,15c-0.923,1.599-0.635,3.61,0.699,4.894C2.501,20.08,2.751,20.173,3,20.173c0.263,0,0.524-0.103,0.721-0.307c0.383-0.398,0.37-1.031-0.027-1.414C3.127,17.907,2.798,16.938,3.34,16l3.149-5.453l0.604,0.349c0.514,0.297,1.157-0.074,1.157-0.668V6.664C8.25,6.07,7.607,5.698,7.093,5.995z" opacity=".35" fill="#00B761" />
</svg>