<?xml version="1.0" encoding="utf-8"?>
<svg xmlns="http://www.w3.org/2000/svg" viewBox="0 0 50 50" width="500" height="500">
  <path d="M46 20C46.554688 20 47 19.550781 47 19L47 15C47 14.449219 46.554688 14 46 14L36 14L36 4C36 3.449219 35.554688 3 35 3L31 3C30.445313 3 30 3.449219 30 4L30 14L20 14L20 4C20 3.449219 19.550781 3 19 3L15 3C14.449219 3 14 3.449219 14 4L14 14L4 14C3.449219 14 3 14.449219 3 15L3 19C3 19.550781 3.449219 20 4 20L14 20L14 30L4 30C3.449219 30 3 30.445313 3 31L3 35C3 35.554688 3.449219 36 4 36L14 36L14 46C14 46.554688 14.449219 47 15 47L19 47C19.550781 47 20 46.554688 20 46L20 36L30 36L30 46C30 46.554688 30.445313 47 31 47L35 47C35.554688 47 36 46.554688 36 46L36 36L46 36C46.554688 36 47 35.554688 47 35L47 31C47 30.445313 46.554688 30 46 30L36 30L36 20 Z M 30 30L20 30L20 20L30 20Z" fill="#FF7A01" />
</svg>