<?xml version="1.0" encoding="utf-8"?>
<svg xmlns="http://www.w3.org/2000/svg" viewBox="0 0 100 100" width="500" height="500">
  <path fill="#ee3e54" d="M13 27A2 2 0 1 0 13 31A2 2 0 1 0 13 27Z" />
  <path fill="#f1bc19" d="M77 12A1 1 0 1 0 77 14A1 1 0 1 0 77 12Z" />
  <path fill="#fce0a2" d="M50 13A37 37 0 1 0 50 87A37 37 0 1 0 50 13Z" />
  <path fill="#f1bc19" d="M83 11A4 4 0 1 0 83 19A4 4 0 1 0 83 11Z" />
  <path fill="#ee3e54" d="M87 22A2 2 0 1 0 87 26A2 2 0 1 0 87 22Z" />
  <path fill="#fbcd59" d="M81 74A2 2 0 1 0 81 78 2 2 0 1 0 81 74zM15 59A4 4 0 1 0 15 67 4 4 0 1 0 15 59z" />
  <path fill="#ee3e54" d="M25 85A2 2 0 1 0 25 89A2 2 0 1 0 25 85Z" />
  <path fill="#fff" d="M18.5 51A2.5 2.5 0 1 0 18.5 56A2.5 2.5 0 1 0 18.5 51Z" />
  <path fill="#f1bc19" d="M21 66A1 1 0 1 0 21 68A1 1 0 1 0 21 66Z" />
  <path fill="#fff" d="M80 33A1 1 0 1 0 80 35A1 1 0 1 0 80 33Z" />
  <g>
    <path fill="#fdfcee" d="M63.548,70.446h-31.91c-3.048,0-5.542-2.494-5.542-5.542V32.993c0-3.048,2.494-5.542,5.542-5.542 h31.911c3.048,0,5.542,2.494,5.542,5.542v31.911C69.09,67.952,66.596,70.446,63.548,70.446z" />
    <path fill="#472b29" d="M63.548,71.146H31.637c-3.441,0-6.242-2.801-6.242-6.242v-31.91c0-3.441,2.801-6.242,6.242-6.242 h31.911c3.441,0,6.242,2.801,6.242,6.242v31.91C69.791,68.345,66.99,71.146,63.548,71.146z M31.637,28.152 c-2.67,0-4.842,2.172-4.842,4.842v31.91c0,2.67,2.172,4.842,4.842,4.842h31.911c2.67,0,4.842-2.172,4.842-4.842v-31.91 c0-2.67-2.172-4.842-4.842-4.842H31.637z" />
    <path fill="#c0e5e4" d="M26.784 34.09H68.401V65.70400000000001H26.784z" />
    <path fill="#472b29" d="M59.923 34.59h-3.794c-.276 0-.5-.224-.5-.5s.224-.5.5-.5h3.794c.276 0 .5.224.5.5S60.199 34.59 59.923 34.59zM54.232 34.59h-27.82c-.276 0-.5-.224-.5-.5s.224-.5.5-.5h27.82c.276 0 .5.224.5.5S54.508 34.59 54.232 34.59zM68.774 34.59h-5.69c-.276 0-.5-.224-.5-.5s.224-.5.5-.5h5.69c.276 0 .5.224.5.5S69.05 34.59 68.774 34.59zM68.774 66.203H33.999c-.276 0-.5-.224-.5-.5s.224-.5.5-.5h34.775c.276 0 .5.224.5.5S69.05 66.203 68.774 66.203zM32.102 66.203h-5.69c-.276 0-.5-.224-.5-.5s.224-.5.5-.5h5.69c.276 0 .5.224.5.5S32.379 66.203 32.102 66.203z" />
    <path fill="#ee3e54" d="M31.47 29.663999999999998A1.265 1.265 0 1 0 31.47 32.193999999999996A1.265 1.265 0 1 0 31.47 29.663999999999998Z" />
    <path fill="#472b29" d="M31.469,32.493c-0.862,0-1.563-0.701-1.563-1.563s0.701-1.564,1.563-1.564 s1.564,0.702,1.564,1.564S32.332,32.493,31.469,32.493z M31.469,29.964c-0.531,0-0.964,0.433-0.964,0.965 c0,0.531,0.433,0.964,0.964,0.964c0.532,0,0.965-0.433,0.965-0.964C32.434,30.397,32.002,29.964,31.469,29.964z" />
    <path fill="#f1bc19" d="M35.896 29.663999999999998A1.265 1.265 0 1 0 35.896 32.193999999999996A1.265 1.265 0 1 0 35.896 29.663999999999998Z" />
    <path fill="#472b29" d="M35.896,32.493c-0.862,0-1.564-0.701-1.564-1.563s0.702-1.564,1.564-1.564 s1.563,0.702,1.563,1.564S36.758,32.493,35.896,32.493z M35.896,29.964c-0.532,0-0.965,0.433-0.965,0.965 c0,0.531,0.433,0.964,0.965,0.964c0.531,0,0.964-0.433,0.964-0.964C36.86,30.397,36.427,29.964,35.896,29.964z" />
    <path fill="#88ae45" d="M40.322 29.663999999999998A1.265 1.265 0 1 0 40.322 32.193999999999996A1.265 1.265 0 1 0 40.322 29.663999999999998Z" />
    <path fill="#472b29" d="M40.322,32.493c-0.862,0-1.564-0.701-1.564-1.563s0.702-1.564,1.564-1.564 s1.564,0.702,1.564,1.564S41.184,32.493,40.322,32.493z M40.322,29.964c-0.532,0-0.965,0.433-0.965,0.965 c0,0.531,0.433,0.964,0.965,0.964s0.965-0.433,0.965-0.964C41.287,30.397,40.854,29.964,40.322,29.964z" />
    <path fill="#fdfcee" d="M39.03 38.429H55.911V43.247H39.03z" />
    <path fill="#472b29" d="M55.911,43.573H39.03c-0.18,0-0.325-0.146-0.325-0.325V38.43c0-0.18,0.146-0.325,0.325-0.325 h16.881c0.18,0,0.325,0.146,0.325,0.325v4.818C56.236,43.427,56.09,43.573,55.911,43.573z M39.355,42.922h16.23v-4.168h-16.23 V42.922z" />
    <path fill="#fdfcee" d="M39.03 45.306H55.911V50.123999999999995H39.03z" />
    <path fill="#472b29" d="M55.911,50.45H39.03c-0.18,0-0.325-0.146-0.325-0.325v-4.818c0-0.18,0.146-0.325,0.325-0.325 h16.881c0.18,0,0.325,0.146,0.325,0.325v4.818C56.236,50.304,56.09,50.45,55.911,50.45z M39.355,49.799h16.23v-4.168h-16.23 V49.799z" />
    <path fill="#472b29" d="M43.925 46.926c.023.01.05.028.08.054l.005.011c.023.028.043.06.06.096.017.036.025.069.025.099 0 .051-.023.097-.069.138l-.559.375.559.371-.015-.012c.06.031.09.075.09.134 0 .025-.01.055-.028.088s-.039.061-.062.084l-.005.023c-.03.025-.057.042-.08.049-.023.007-.05.012-.08.012-.063 0-.11-.017-.14-.05l-.329-.214v.402c0 .028-.01.054-.03.078s-.045.045-.075.062c-.03.016-.063.029-.1.038s-.072.014-.105.014h-.02c-.08 0-.132-.015-.157-.046-.025-.031-.041-.068-.048-.111v-.417l-.319.21c-.047.035-.095.054-.145.054-.026 0-.055-.006-.087-.017-.032-.012-.057-.031-.077-.059l-.005-.015c-.02-.023-.038-.054-.052-.092-.015-.038-.023-.071-.023-.099 0-.053.021-.097.065-.13l.549-.363-.549-.367c-.043-.035-.065-.077-.065-.126 0-.064.03-.125.09-.183l.015-.015c.023-.021.046-.035.068-.042.021-.008.046-.012.072-.012.023 0 .048.003.072.01.025.006.049.018.072.036l.33.218v-.37c0-.056.034-.101.102-.134.068-.033.139-.049.213-.049h.015c.077 0 .127.014.152.042s.041.063.048.107l-.005.371.329-.218-.01.007c.046-.035.096-.054.15-.054C43.875 46.911 43.902 46.916 43.925 46.926zM46.827 46.926c.023.01.05.028.08.054l.005.011c.023.028.043.06.06.096.017.036.025.069.025.099 0 .051-.023.097-.069.138l-.559.375.559.371-.015-.012c.06.031.09.075.09.134 0 .025-.01.055-.028.088s-.039.061-.062.084l-.005.023c-.03.025-.057.042-.08.049-.023.007-.05.012-.08.012-.063 0-.11-.017-.14-.05l-.329-.214v.402c0 .028-.01.054-.03.078s-.045.045-.075.062c-.03.016-.063.029-.1.038s-.072.014-.105.014h-.02c-.08 0-.132-.015-.157-.046-.025-.031-.041-.068-.048-.111v-.417l-.319.21c-.047.035-.095.054-.145.054-.026 0-.055-.006-.087-.017-.032-.012-.057-.031-.077-.059l-.005-.015c-.02-.023-.038-.054-.052-.092-.015-.038-.023-.071-.023-.099 0-.053.021-.097.065-.13l.549-.363-.55-.369c-.043-.035-.065-.077-.065-.126 0-.064.03-.125.09-.183L45.14 47c.023-.021.046-.035.068-.042.021-.008.046-.012.072-.012.023 0 .048.003.072.01.025.006.049.018.072.036l.33.218v-.37c0-.056.034-.101.102-.134.068-.033.139-.049.213-.049h.015c.077 0 .127.014.152.042s.041.063.048.107l-.005.371.329-.218-.01.007c.046-.035.096-.054.15-.054C46.777 46.911 46.804 46.916 46.827 46.926zM49.73 46.926c.023.01.05.028.08.054l.005.011c.023.028.043.06.06.096.017.036.025.069.025.099 0 .051-.023.097-.069.138l-.559.375.559.371-.015-.012c.06.031.09.075.09.134 0 .025-.01.055-.028.088s-.039.061-.062.084l-.005.023c-.03.025-.057.042-.08.049-.023.007-.05.012-.08.012-.063 0-.11-.017-.14-.05l-.329-.214v.402c0 .028-.01.054-.03.078s-.045.045-.075.062c-.03.016-.063.029-.1.038s-.072.014-.105.014h-.02c-.08 0-.132-.015-.157-.046-.025-.031-.041-.068-.048-.111v-.417l-.319.21c-.047.035-.095.054-.145.054-.026 0-.055-.006-.087-.017-.032-.012-.057-.031-.077-.059l-.005-.015c-.02-.023-.038-.054-.052-.092-.015-.038-.023-.071-.023-.099 0-.053.021-.097.065-.13l.549-.363-.549-.367c-.043-.035-.065-.077-.065-.126 0-.064.03-.125.09-.183l.015-.015c.023-.021.046-.035.068-.042.021-.008.046-.012.072-.012.023 0 .048.003.072.01.025.006.049.018.072.036l.33.218v-.37c0-.056.034-.101.102-.134.068-.033.139-.049.213-.049h.015c.077 0 .127.014.152.042s.041.063.048.107l-.005.371.329-.218-.01.007c.046-.035.096-.054.15-.054C49.68 46.911 49.707 46.916 49.73 46.926zM52.632 46.926c.023.01.05.028.08.054l.005.011c.023.028.043.06.06.096.017.036.025.069.025.099 0 .051-.023.097-.069.138l-.559.375.559.371-.015-.012c.06.031.09.075.09.134 0 .025-.01.055-.028.088s-.039.061-.062.084l-.005.023c-.03.025-.057.042-.08.049-.023.007-.05.012-.08.012-.063 0-.11-.017-.14-.05l-.329-.214v.402c0 .028-.01.054-.03.078s-.045.045-.075.062c-.03.016-.063.029-.1.038s-.072.014-.105.014h-.02c-.08 0-.132-.015-.157-.046-.025-.031-.041-.068-.048-.111v-.417l-.319.21c-.047.035-.095.054-.145.054-.026 0-.055-.006-.087-.017-.032-.012-.057-.031-.077-.059l-.005-.015c-.02-.023-.038-.054-.052-.092-.015-.038-.023-.071-.023-.099 0-.053.021-.097.065-.13l.549-.363-.549-.367c-.043-.035-.065-.077-.065-.126 0-.064.03-.125.09-.183l.015-.015c.023-.021.046-.035.068-.042.021-.008.046-.012.072-.012.023 0 .048.003.072.01.025.006.049.018.072.036l.33.218v-.37c0-.056.034-.101.102-.134.068-.033.139-.049.213-.049h.015c.077 0 .127.014.152.042s.041.063.048.107l-.005.371.329-.218-.01.007c.046-.035.096-.054.15-.054C52.582 46.911 52.609 46.916 52.632 46.926z" />
    <path fill="#88ae45" d="M53.88,57.887H41.06c-1.117,0-2.03-0.914-2.03-2.03v-0.606c0-1.117,0.914-2.03,2.03-2.03h12.82 c1.117,0,2.03,0.914,2.03,2.03v0.606C55.911,56.974,54.997,57.887,53.88,57.887z" />
    <path fill="#472b29" d="M53.881,58.187H41.06c-1.285,0-2.33-1.045-2.33-2.33v-0.605c0-1.285,1.045-2.33,2.33-2.33h12.82 c1.285,0,2.33,1.045,2.33,2.33v0.605C56.211,57.142,55.166,58.187,53.881,58.187z M41.06,53.521c-0.954,0-1.73,0.776-1.73,1.73 v0.605c0,0.954,0.776,1.73,1.73,1.73h12.82c0.954,0,1.73-0.776,1.73-1.73v-0.605c0-0.954-0.776-1.73-1.73-1.73H41.06z" />
    <path fill="#c0d078" d="M73.712,59.923v-5.439c0-2.981-2.859-5.344-5.786-5.344c-2.933,0-6.003,2.416-6.003,5.398v5.385 h2.08v-5.317c0-1.769,2.033-3.198,3.722-3.198c1.685,0,3.56,1.4,3.56,3.166v5.349L73.712,59.923z" />
    <path fill="#472b29" d="M74.088,60.298H70.91v-5.725c0-1.572-1.712-2.791-3.185-2.791c-1.507,0-3.347,1.303-3.347,2.823 v5.692h-2.83v-5.76c0-3.305,3.367-5.773,6.377-5.773c3.282,0,6.162,2.672,6.162,5.719L74.088,60.298L74.088,60.298z M71.66,59.548h1.678v-5.064c0-2.646-2.529-4.969-5.412-4.969c-2.603,0-5.627,2.194-5.627,5.023v5.01h1.33v-4.942 c0-2.013,2.202-3.573,4.097-3.573c1.857,0,3.935,1.515,3.935,3.541L71.66,59.548L71.66,59.548z" />
    <path fill="#472b29" d="M73.713,60.423c-0.276,0-0.5-0.224-0.5-0.5v-5.439c0-2.58-2.471-4.844-5.287-4.844 c-2.544,0-5.502,2.14-5.502,4.898v5.385c0,0.276-0.224,0.5-0.5,0.5s-0.5-0.224-0.5-0.5v-5.385c0-3.376,3.433-5.898,6.502-5.898 c3.35,0,6.287,2.73,6.287,5.844v5.439C74.213,60.2,73.989,60.423,73.713,60.423z" />
    <path fill="#88ae45" d="M69.753,72.752h-4.218c-4.18,0-7.599-3.42-7.599-7.599v-5.078c0-1.037,0.848-1.885,1.885-1.885 h15.647c1.037,0,1.885,0.848,1.885,1.885v5.078C77.353,69.332,73.933,72.752,69.753,72.752z" />
    <path fill="#472b29" d="M69.754,73.252h-4.219c-4.466,0-8.1-3.634-8.1-8.1v-5.079c0-1.315,1.07-2.385,2.386-2.385h15.646 c1.315,0,2.386,1.07,2.386,2.386v5.078C77.853,69.619,74.219,73.252,69.754,73.252z M59.821,58.689 c-0.764,0-1.386,0.621-1.386,1.385v5.079c0,3.915,3.185,7.1,7.1,7.1h4.219c3.915,0,7.1-3.185,7.1-7.1v-5.078 c0-0.764-0.622-1.386-1.386-1.386H59.821z" />
    <path fill="#f1bc19" d="M58.282 60.79H77.006V63.911H58.282z" />
    <path fill="#472b29" d="M77.353 64.236H57.935c-.18 0-.325-.146-.325-.325s.146-.325.325-.325h19.418c.18 0 .325.146.325.325S77.533 64.236 77.353 64.236zM71.285 61.115h-13.35c-.18 0-.325-.146-.325-.325s.146-.325.325-.325h13.35c.18 0 .325.146.325.325S71.465 61.115 71.285 61.115zM75.099 61.115h-2.428c-.18 0-.325-.146-.325-.325s.146-.325.325-.325h2.428c.18 0 .325.146.325.325S75.279 61.115 75.099 61.115zM77.179 61.115h-1.04c-.18 0-.325-.146-.325-.325s.146-.325.325-.325h1.04c.18 0 .325.146.325.325S77.359 61.115 77.179 61.115z" />
    <g>
      <path fill="#472b29" d="M57.935,63.47c-0.025,0-0.05-0.008-0.072-0.022c-0.056-0.04-0.069-0.118-0.03-0.175l1.802-2.567 c0.04-0.057,0.116-0.068,0.175-0.03c0.056,0.04,0.069,0.118,0.03,0.175l-1.802,2.567C58.013,63.452,57.974,63.47,57.935,63.47z" />
    </g>
    <g>
      <path fill="#472b29" d="M60.623,63.891c-0.024,0-0.05-0.008-0.071-0.022c-0.057-0.04-0.07-0.118-0.031-0.175l2.08-2.966 c0.039-0.056,0.117-0.069,0.174-0.03c0.057,0.04,0.07,0.118,0.031,0.174l-2.08,2.966C60.701,63.872,60.662,63.891,60.623,63.891z" />
    </g>
    <g>
      <path fill="#472b29" d="M63.281,63.891c-0.025,0-0.05-0.008-0.072-0.022c-0.056-0.04-0.069-0.118-0.03-0.175l2.081-2.966 c0.04-0.057,0.117-0.068,0.175-0.03c0.056,0.04,0.069,0.118,0.03,0.175l-2.081,2.966C63.359,63.872,63.32,63.891,63.281,63.891z" />
    </g>
    <g>
      <path fill="#472b29" d="M65.939,63.891c-0.025,0-0.05-0.008-0.072-0.022c-0.056-0.04-0.069-0.118-0.03-0.175l2.081-2.966 c0.04-0.057,0.117-0.068,0.175-0.03c0.056,0.04,0.069,0.118,0.03,0.175l-2.081,2.966C66.017,63.872,65.978,63.891,65.939,63.891z" />
    </g>
    <g>
      <path fill="#472b29" d="M68.597,63.891c-0.025,0-0.05-0.008-0.072-0.022c-0.056-0.04-0.069-0.118-0.03-0.175l2.081-2.966 c0.039-0.057,0.117-0.068,0.175-0.03c0.056,0.04,0.069,0.118,0.03,0.175L68.7,63.838C68.675,63.872,68.636,63.891,68.597,63.891z" />
    </g>
    <g>
      <path fill="#472b29" d="M71.257,63.891c-0.024,0-0.05-0.008-0.071-0.022c-0.057-0.04-0.07-0.118-0.031-0.175l2.08-2.966 c0.039-0.056,0.117-0.069,0.174-0.03c0.057,0.04,0.07,0.118,0.031,0.174l-2.08,2.966C71.335,63.872,71.296,63.891,71.257,63.891z" />
    </g>
    <g>
      <path fill="#472b29" d="M73.915,63.891c-0.024,0-0.05-0.008-0.071-0.022c-0.057-0.04-0.07-0.118-0.031-0.175l2.08-2.966 c0.039-0.056,0.117-0.069,0.174-0.03c0.057,0.04,0.07,0.118,0.031,0.174l-2.08,2.966C73.993,63.872,73.954,63.891,73.915,63.891z" />
    </g>
    <g>
      <path fill="#6f913d" d="M68.728,70.152l-0.6-2.002c-0.042-0.114-0.115-0.211-0.012-0.276 c0.311-0.196,0.493-0.577,0.387-0.992c-0.077-0.301-0.322-0.548-0.622-0.627c-0.599-0.157-1.137,0.291-1.137,0.865 c0,0.316,0.164,0.592,0.411,0.75c0.106,0.068,0.07,0.147,0.027,0.266l-0.632,2.017L68.728,70.152L68.728,70.152z" />
      <path fill="#472b29" d="M68.728,70.427h-2.179c-0.088,0-0.17-0.042-0.222-0.112c-0.052-0.071-0.067-0.162-0.041-0.245 l0.633-2.017c0,0,0.002-0.004,0.004-0.011c-0.286-0.221-0.455-0.56-0.455-0.924c0-0.366,0.167-0.705,0.457-0.929 c0.29-0.225,0.663-0.298,1.025-0.202c0.396,0.104,0.717,0.428,0.819,0.825c0.116,0.456-0.041,0.927-0.396,1.213l0.012,0.029 l0.605,2.018c0.024,0.083,0.009,0.174-0.043,0.243C68.897,70.386,68.815,70.427,68.728,70.427z M66.924,69.876h1.435 l-0.494-1.647c-0.123-0.284-0.082-0.472,0.106-0.589c0.231-0.146,0.336-0.417,0.266-0.69c-0.052-0.204-0.224-0.377-0.427-0.431 c-0.196-0.05-0.394-0.014-0.549,0.106c-0.154,0.118-0.242,0.299-0.242,0.493c0,0.211,0.106,0.405,0.285,0.52 c0.285,0.184,0.182,0.466,0.144,0.572L66.924,69.876z M68.265,68.105c0,0-0.001,0.001-0.002,0.001 C68.264,68.106,68.265,68.105,68.265,68.105z" />
    </g>
    <g>
      <path fill="#472b29" d="M59.2,63.968c-0.025,0-0.05-0.008-0.072-0.022c-0.056-0.04-0.069-0.118-0.03-0.175l2.081-2.965 c0.039-0.057,0.117-0.068,0.175-0.03c0.056,0.04,0.069,0.118,0.03,0.175l-2.081,2.965C59.278,63.95,59.239,63.968,59.2,63.968z" />
    </g>
    <g>
      <path fill="#472b29" d="M61.923,63.968c-0.025,0-0.05-0.008-0.072-0.022c-0.056-0.04-0.069-0.118-0.03-0.175l2.08-2.965 c0.04-0.057,0.117-0.068,0.175-0.03c0.056,0.04,0.069,0.118,0.03,0.175l-2.08,2.965C62.002,63.95,61.963,63.968,61.923,63.968z" />
    </g>
    <g>
      <path fill="#472b29" d="M64.578,63.891c-0.024,0-0.05-0.008-0.071-0.022c-0.057-0.04-0.07-0.118-0.031-0.175l2.08-2.966 c0.039-0.056,0.117-0.069,0.174-0.03c0.057,0.04,0.07,0.118,0.031,0.174l-2.08,2.966C64.656,63.872,64.617,63.891,64.578,63.891z" />
    </g>
    <g>
      <path fill="#472b29" d="M67.169,63.968c-0.025,0-0.05-0.008-0.072-0.022c-0.056-0.04-0.069-0.118-0.03-0.175l2.08-2.965 c0.04-0.057,0.116-0.068,0.175-0.03c0.056,0.04,0.069,0.118,0.03,0.175l-2.08,2.965C67.247,63.95,67.208,63.968,67.169,63.968z" />
    </g>
    <g>
      <path fill="#472b29" d="M69.94,63.968c-0.025,0-0.05-0.008-0.072-0.022c-0.056-0.04-0.069-0.118-0.03-0.175l2.08-2.965 c0.04-0.057,0.116-0.068,0.175-0.03c0.056,0.04,0.069,0.118,0.03,0.175l-2.08,2.965C70.018,63.95,69.979,63.968,69.94,63.968z" />
    </g>
    <g>
      <path fill="#472b29" d="M72.499,64.036c-0.024,0-0.05-0.008-0.071-0.022c-0.057-0.04-0.07-0.118-0.031-0.175l2.08-2.966 c0.039-0.057,0.118-0.069,0.174-0.03c0.057,0.04,0.07,0.118,0.031,0.174l-2.08,2.966C72.577,64.017,72.538,64.036,72.499,64.036z" />
    </g>
    <g>
      <path fill="#472b29" d="M75.177,64.036c-0.025,0-0.05-0.008-0.072-0.022c-0.056-0.04-0.069-0.118-0.03-0.175l2.081-2.966 c0.04-0.058,0.117-0.067,0.175-0.03c0.056,0.04,0.069,0.118,0.03,0.175l-2.081,2.966C75.256,64.017,75.216,64.036,75.177,64.036z" />
    </g>
  </g>
</svg>