<svg xmlns="http://www.w3.org/2000/svg" viewBox="0 0 24 24">
  <path d="M19.5,6C18.672,6,18,6.672,18,7.5v2.59l-1-0.136V4.5C17,3.672,16.328,3,15.5,3S14,3.672,14,4.5v5.045l-1-0.136V3.5 C13,2.672,12.328,2,11.5,2S10,2.672,10,3.5V9H9V4.5C9,3.672,8.328,3,7.5,3S6,3.672,6,4.5v8.944l-0.59-0.59 c-1.139-1.139-2.986-1.139-4.125,0c-0.38,0.38-0.38,0.995,0,1.375l5.763,5.763l0.002-0.003C7.683,20.613,8.551,21,9.51,21H16 c2.761,0,5-2.239,5-5V7.5C21,6.672,20.328,6,19.5,6z" opacity=".35" fill="#00B761" />
  <path d="M9.644,15.756c0.373,0.373,2.633,2.253,2.79,2.41l0,0C12.591,18.322,12.795,18.4,13,18.4s0.409-0.078,0.566-0.234l0,0 c0.157-0.157,2.417-2.037,2.79-2.41c0.859-0.859,0.859-2.252,0-3.111c-0.859-0.859-2.252-0.859-3.111,0 c-0.093,0.093-0.171,0.195-0.244,0.299c-0.073-0.104-0.151-0.206-0.244-0.299c-0.859-0.859-2.252-0.859-3.111,0 C8.785,13.504,8.785,14.896,9.644,15.756z" fill="#00B761" />
</svg>