<svg xmlns="http://www.w3.org/2000/svg" viewBox="0 0 24 24">
  <path d="M2,18.93v-5.801c0-0.682,0.469-1.275,1.133-1.433l2.305-0.545c1.178-0.279,2.415-0.17,3.527,0.309l4.379,1.888c1.389,0.599,2.015,2.223,1.386,3.599l0,0l0.373,0.489l4.653-1.661c0.883-0.328,1.862,0.141,2.16,1.034v0c0.262,0.786-0.094,1.645-0.835,2.016l-4.623,2.328c-0.921,0.46-1.987,0.536-2.964,0.211l-6.14-2.047c-0.875-0.292-1.82-0.294-2.697-0.008L3.185,19.79C2.601,19.981,2,19.545,2,18.93z" opacity=".35" fill="#00B761" />
  <path d="M20.338,8.218c-1.964,1.964-5.333,1.778-5.333,1.778s-0.186-3.369,1.778-5.333c1.008-1.008,2.385-1.449,3.488-1.64c1.001-0.173,1.881,0.707,1.708,1.708C21.787,5.832,21.345,7.21,20.338,8.218z" fill="#00B761" />
  <path d="M14.218,3.662c1.964,1.964,1.778,5.333,1.778,5.333s-3.369,0.186-5.333-1.778C9.655,6.21,9.213,4.832,9.022,3.729c-0.173-1.001,0.707-1.881,1.708-1.708C11.832,2.213,13.21,2.655,14.218,3.662z" fill="#00B761" />
  <path d="M16,7h-2v6c0.702,0,1.374,0.127,2,0.349V7z" fill="#00B761" />
  <path d="M13.343,13.349c1.389,0.599,2.015,2.223,1.386,3.599l0.373,0.489l4.653-1.661c0.378-0.141,0.772-0.128,1.124-0.005C20.565,14.748,19.625,14,18.5,14c-0.018,0-0.034,0.005-0.052,0.005C17.756,12.812,16.479,12,15,12c-0.983,0-1.871,0.368-2.567,0.956L13.343,13.349z" fill="#00B761" />
</svg>