<svg xmlns="http://www.w3.org/2000/svg" viewBox="0 0 24 24">
  <circle cx="12" cy="6" r="4" opacity=".35" fill="#00B761" />
  <circle cx="4.5" cy="9.5" r="2.5" opacity=".35" fill="#00B761" />
  <circle cx="19.5" cy="9.5" r="2.5" opacity=".35" fill="#00B761" />
  <path d="M15,19H9c-1.657,0-3-1.567-3-3.5v0C6,13.567,7.343,12,9,12h6c1.657,0,3,1.567,3,3.5v0C18,17.433,16.657,19,15,19z" fill="#00B761" />
  <path d="M21.551,14H2.372C1.062,14,0,15.062,0,16.372v0.257C0,17.938,1.062,19,2.372,19h19.179C22.903,19,24,17.903,24,16.55v-0.101C24,15.097,22.903,14,21.551,14z" opacity=".35" fill="#00B761" />
</svg>