<svg xmlns="http://www.w3.org/2000/svg" viewBox="0 0 24 24">
  <path d="M6,21c1.105,0,2-0.895,2-2v-4H4v4C4,20.105,4.895,21,6,21z" fill="#00B761" />
  <path d="M4,11.816V15h4v-3.184c1.163-0.413,2-1.512,2-2.816V4c0-0.552-0.448-1-1-1S8,3.448,8,4v4c0,0.276-0.224,0.5-0.5,0.5S7,8.276,7,8V4c0-0.552-0.448-1-1-1S5,3.448,5,4v4c0,0.276-0.224,0.5-0.5,0.5S4,8.276,4,8V4c0-0.552-0.448-1-1-1S2,3.448,2,4v5C2,10.304,2.837,11.403,4,11.816z" opacity=".35" fill="#00B761" />
  <path d="M22,4c0-0.552-0.448-1-1-1h-8c-0.552,0-1,0.448-1,1c0,0,0,5.686,0,6c0,2.761,2.239,5,5,5s5-2.239,5-5C22,9.69,22,4,22,4z" opacity=".35" fill="#00B761" />
  <path d="M20.117,18.823l-1.347-0.319C18.318,18.397,18,17.995,18,17.531v-2.632C17.677,14.965,17.343,15,17,15s-0.677-0.035-1-0.101v2.632c0,0.464-0.318,0.866-0.769,0.973l-1.347,0.319C13.37,18.926,13,19.377,13,19.901C13,20.508,13.492,21,14.099,21h5.802C20.508,21,21,20.508,21,19.901C21,19.377,20.63,18.926,20.117,18.823z" fill="#00B761" />
</svg>