<svg xmlns="http://www.w3.org/2000/svg" viewBox="0 0 24 24">
  <path d="M20.419,6.002C19.608,6.045,19,6.773,19,7.585L19,11h-0.379c-0.398,0-0.779,0.158-1.061,0.439 l-3.389,3.389C13.421,15.579,13,16.596,13,17.657V20c0,1.105,0.895,2,2,2h2c1.105,0,2-0.895,2-2v-1.7l2.392-3.162 C21.787,14.617,22,13.982,22,13.328V7.5C22,6.645,21.284,5.957,20.419,6.002z" opacity=".35" fill="#00B761" />
  <path d="M3.581,6.002C4.392,6.045,5,6.773,5,7.585L5,11h0.379c0.398,0,0.779,0.158,1.061,0.439l3.389,3.389 c0.75,0.75,1.172,1.768,1.172,2.828V20c0,1.105-0.895,2-2,2H7c-1.105,0-2-0.895-2-2v-1.7l-2.392-3.162 C2.213,14.617,2,13.982,2,13.328V7.5C2,6.645,2.716,5.957,3.581,6.002z" opacity=".35" fill="#00B761" />
  <path d="M7.805,7.695c0.467,0.467,3.291,2.816,3.487,3.012c0,0,0,0,0,0C11.488,10.902,11.744,11,12,11s0.512-0.098,0.707-0.293 c0,0,0,0,0,0c0.196-0.196,3.021-2.546,3.487-3.012c1.074-1.074,1.074-2.815,0-3.889c-1.074-1.074-2.815-1.074-3.889,0 C12.189,3.922,12.091,4.049,12,4.179c-0.091-0.13-0.189-0.258-0.305-0.374c-1.074-1.074-2.815-1.074-3.889,0 C6.732,4.879,6.732,6.621,7.805,7.695z" fill="#00B761" />
</svg>