<?xml version="1.0" encoding="utf-8"?>
<svg xmlns="http://www.w3.org/2000/svg" viewBox="0 0 48 48" width="480" height="480">
  <path fill="#bf360c" d="M16,15h16v18H16V15z" />
  <path fill="#bf360c" d="M16,15h16v18H16V15z" />
  <path fill="#4e342e" d="M16,15h16v18H16V15z" />
  <path fill="#edb405" d="M24,37c-2.191,0-5-6-5-6v-6h10v6C29,31,26.191,37,24,37" />
  <path fill="#ffca28" d="M33,14c0-7.637-18-4.973-18,0v7c0,4.973,4.027,9,9,9s9-4.027,9-9V14z" />
  <path fill="#795548" d="M24,4C17.926,4,9,7.402,9,27.285L16,32V19l12-7l4,5v15l7-6c0-4.023-0.676-20-11-20l-1-2H24z" />
  <path fill="#ffca28" d="M24,38c-4.422,0-5-7-5-7s2.508,4,5,4s5-4,5-4S28.422,38,24,38" />
  <path fill="#784719" d="M27 21c0 .551.449 1 1 1s1-.449 1-1-.449-1-1-1S27 20.449 27 21M19 21c0 .551.449 1 1 1s1-.449 1-1-.449-1-1-1S19 20.449 19 21" />
  <path fill="#edb405" d="M24,37c-2.191,0-5-6-5-6v-6h10v6C29,31,26.191,37,24,37" />
  <path fill="#ffca28" d="M33,14c0-7.637-18-4.973-18,0v7c0,4.973,4.027,9,9,9s9-4.027,9-9V14z" />
  <path fill="#795548" d="M24,4C17.926,4,9,7.402,9,27.285L16,32V19l12-7l4,5v15l7-6c0-4.023-0.676-20-11-20l-1-2H24z" />
  <path fill="#ffca28" d="M24,38c-4.422,0-5-7-5-7s2.508,4,5,4s5-4,5-4S28.422,38,24,38" />
  <path fill="#784719" d="M27 21c0 .551.449 1 1 1s1-.449 1-1-.449-1-1-1S27 20.449 27 21M19 21c0 .551.449 1 1 1s1-.449 1-1-.449-1-1-1S19 20.449 19 21" />
  <path fill="#4fc3f7" d="M29,31c0,0-1,4-5,4s-5-4-5-4S8,32.984,8,44h32C40,33.023,29,31,29,31" />
  <path fill="#edb405" d="M24,37c-2.191,0-5-6-5-6v-6h10v6C29,31,26.191,37,24,37" />
  <path fill="#ffca28" d="M33,14c0-7.637-18-4.973-18,0v7c0,4.973,4.027,9,9,9s9-4.027,9-9V14z" />
  <path fill="#795548" d="M24,4C17.926,4,9,7.402,9,27.285L16,32V19l12-7l4,5v15l7-6c0-4.023-0.676-20-11-20l-1-2H24z" />
  <path fill="#ffca28" d="M24,38c-4.422,0-5-7-5-7s2.508,4,5,4s5-4,5-4S28.422,38,24,38" />
  <path fill="#01579b" d="M24,40c4.746,0,6.57-5.113,6.949-8.43C29.793,31.148,29,31,29,31s-0.578,7-5,7s-5-7-5-7 s-0.793,0.145-1.949,0.566C17.426,34.879,19.25,40,24,40z" />
  <path fill="#784719" d="M27,21c0-0.551,0.449-1,1-1s1,0.449,1,1s-0.449,1-1,1S27,21.551,27,21 M19,21c0,0.551,0.449,1,1,1 s1-0.449,1-1s-0.449-1-1-1S19,20.449,19,21" />
</svg>