<?xml version="1.0" encoding="utf-8"?>
<svg xmlns="http://www.w3.org/2000/svg" viewBox="0 0 24 24" width="48" height="48">
  <path d="M15,8.683V7c0-0.552-0.448-1-1-1h-4C9.448,6,9,6.448,9,7v1.683C6.637,9.807,5,12.209,5,15c0,3.866,3.134,7,7,7s7-3.134,7-7C19,12.209,17.363,9.807,15,8.683z" opacity=".35" fill="#CD7F32" />
  <polygon points="10,8 14,8 19,2 15,2" fill="#00B761" />
  <path d="M9,7c0-0.552,0.448-1,1-1h1L8,2H4l5,6.504V7z" fill="#00B761" />
  <path d="M14.322,16.593c0,1.728-1.282,2.407-2.417,2.407c-1.07,0-1.713-0.443-2.085-0.961c-0.32-0.447-0.074-1.079,0.459-1.215l0,0c0.33-0.084,0.663,0.061,0.859,0.339c0.134,0.191,0.347,0.352,0.69,0.352c0.663,0,0.813-0.684,0.813-0.997c0-0.698-0.442-0.976-1.051-0.976h-0.013c-0.353,0-0.639-0.286-0.639-0.639l0,0c0-0.353,0.286-0.639,0.639-0.639h0.057c0.289,0,0.9-0.101,0.9-0.965c0-0.216-0.088-0.813-0.705-0.813c-0.266,0-0.438,0.129-0.551,0.285c-0.177,0.242-0.466,0.374-0.757,0.302l-0.099-0.024c-0.477-0.118-0.703-0.681-0.42-1.082C10.342,11.483,10.936,11,11.949,11c1.281,0,2.222,0.837,2.222,2.082c0,1.053-0.569,1.612-1.051,1.744v0.033C13.532,14.949,14.322,15.46,14.322,16.593z" fill="#00B761" />
</svg>