<?xml version="1.0" encoding="utf-8"?>
<svg xmlns="http://www.w3.org/2000/svg" viewBox="0 0 24 24" width="48" height="48">
  <path d="M15,8.683V7c0-0.552-0.448-1-1-1h-4C9.448,6,9,6.448,9,7v1.683C6.637,9.807,5,12.209,5,15c0,3.866,3.134,7,7,7 s7-3.134,7-7C19,12.209,17.363,9.807,15,8.683z" opacity=".35" fill="#FFD700" />
  <path d="M11.634,18.113v-5.011l-0.476,0.359c-0.383,0.289-0.932,0.176-1.17-0.24v0c-0.201-0.352-0.106-0.798,0.221-1.037l1.303-0.954c0.204-0.15,0.451-0.23,0.704-0.23h0c0.659,0,1.192,0.534,1.192,1.192v5.92c0,0.49-0.397,0.887-0.887,0.887h0C12.031,19,11.634,18.603,11.634,18.113z" fill="#00B761" />
  <polygon points="10,8 14,8 19,2 15,2" fill="#00B761" />
  <path d="M9,7c0-0.552,0.448-1,1-1h1L8,2H4l5,6.504V7z" fill="#00B761" />
</svg>