<?xml version="1.0" encoding="utf-8"?>
<svg xmlns="http://www.w3.org/2000/svg" viewBox="0 0 24 24" width="384" height="384">
  <circle cx="12" cy="12" r="10" opacity=".35" fill="#FF7A01" />
  <circle cx="12" cy="12" r="2" fill="#FF7A01" />
  <path d="M12,13c-0.256,0-0.512-0.098-0.707-0.293c-0.391-0.391-0.391-1.023,0-1.414l7-7c0.391-0.391,1.023-0.391,1.414,0s0.391,1.023,0,1.414l-7,7C12.512,12.902,12.256,13,12,13z" fill="#FF7A01" />
  <path d="M15.973,12.269C15.831,14.347,14.113,16,12,16c-2.206,0-4-1.794-4-4c0-2.113,1.653-3.831,3.731-3.973l1.817-1.817C13.053,6.077,12.536,6,12,6c-3.309,0-6,2.691-6,6s2.691,6,6,6s6-2.691,6-6c0-0.536-0.077-1.053-0.21-1.548L15.973,12.269z" fill="#FF7A01" />
  <path d="M19.365,8.877C19.773,9.837,20,10.893,20,12c0,4.411-3.589,8-8,8s-8-3.589-8-8s3.589-8,8-8c1.107,0,2.163,0.227,3.123,0.635l1.496-1.496C15.236,2.415,13.666,2,12,2C6.486,2,2,6.486,2,12s4.486,10,10,10s10-4.486,10-10c0-1.666-0.415-3.236-1.139-4.619L19.365,8.877z" fill="#FF7A01" />
</svg>