<?xml version="1.0" encoding="utf-8"?>
<svg xmlns="http://www.w3.org/2000/svg" viewBox="0 0 24 24" width="192" height="192">
  <path d="M16,19H6c-1.657,0-3-1.343-3-3V6c0-1.657,1.343-3,3-3h10c1.657,0,3,1.343,3,3v10C19,17.657,17.657,19,16,19z" opacity=".35" fill="#00B761" />
  <path d="M10,15c-0.256,0-0.512-0.098-0.707-0.293l-3-3c-0.391-0.391-0.391-1.023,0-1.414s1.023-0.391,1.414,0L10,12.586l4.293-4.293c0.391-0.391,1.023-0.391,1.414,0s0.391,1.023,0,1.414l-5,5C10.512,14.902,10.256,15,10,15z" fill="#00B761" />
  <path d="M18.86,5.14C18.942,5.414,19,5.699,19,6v10c0,1.657-1.343,3-3,3H6c-0.301,0-0.586-0.058-0.86-0.14C5.512,20.095,6.644,21,8,21h10c1.657,0,3-1.343,3-3V8C21,6.644,20.095,5.512,18.86,5.14z" fill="#00B761" />
</svg>